<svg width="11" height="7" viewBox="0 0 11 7" fill="none" xmlns="http://www.w3.org/2000/svg">
<path d="M5.17599 4.63207L8.83299 0.97507C8.89954 0.901983 8.98009 0.842991 9.06985 0.801588C9.15961 0.760184 9.25677 0.737211 9.35557 0.734026C9.45437 0.730842 9.55281 0.747512 9.64505 0.783049C9.73729 0.818586 9.82147 0.872269 9.89259 0.940919C9.96372 1.00957 10.0203 1.09179 10.0591 1.18272C10.0979 1.27364 10.1181 1.37143 10.1184 1.47028C10.1187 1.56913 10.0992 1.66704 10.061 1.75821C10.0228 1.84938 9.96667 1.93197 9.89599 2.00107L9.87799 2.01907L5.69899 6.19907C5.5604 6.33763 5.37246 6.41547 5.17649 6.41547C4.98052 6.41547 4.79257 6.33763 4.65399 6.19907L0.474987 2.02007C0.405189 1.95264 0.349357 1.87212 0.310678 1.7831C0.272 1.69409 0.251232 1.59834 0.24956 1.5013C0.247889 1.40426 0.265347 1.30784 0.300937 1.21755C0.336527 1.12726 0.389553 1.04487 0.456987 0.97507C0.524421 0.905273 0.604942 0.849441 0.693953 0.810762C0.782964 0.772083 0.878722 0.751315 0.975759 0.749644C1.0728 0.747972 1.16921 0.76543 1.2595 0.80102C1.34979 0.836611 1.43219 0.889637 1.50199 0.95707L1.51999 0.97507L5.17599 4.63207Z" fill="#0A0716" stroke="#0A0716" stroke-width="0.5"/>
</svg>
