<svg width="16" height="21" viewBox="0 0 16 21" fill="none" xmlns="http://www.w3.org/2000/svg">
<path d="M11.2551 5C11.2551 6.79493 9.80002 8.25 8.0051 8.25V9.75C10.6284 9.75 12.7551 7.62335 12.7551 5H11.2551ZM8.0051 8.25C6.21017 8.25 4.7551 6.79493 4.7551 5H3.2551C3.2551 7.62335 5.38174 9.75 8.0051 9.75V8.25ZM4.7551 5C4.7551 3.20507 6.21017 1.75 8.0051 1.75V0.25C5.38174 0.25 3.2551 2.37665 3.2551 5H4.7551ZM8.0051 1.75C9.80002 1.75 11.2551 3.20507 11.2551 5H12.7551C12.7551 2.37665 10.6284 0.25 8.0051 0.25V1.75ZM5.0051 12.75H11.0051V11.25H5.0051V12.75ZM11.0051 19.25H5.0051V20.75H11.0051V19.25ZM5.0051 19.25C3.21017 19.25 1.7551 17.7949 1.7551 16H0.255096C0.255096 18.6234 2.38174 20.75 5.0051 20.75V19.25ZM14.2551 16C14.2551 17.7949 12.8 19.25 11.0051 19.25V20.75C13.6284 20.75 15.7551 18.6234 15.7551 16H14.2551ZM11.0051 12.75C12.8 12.75 14.2551 14.2051 14.2551 16H15.7551C15.7551 13.3766 13.6284 11.25 11.0051 11.25V12.75ZM5.0051 11.25C2.38174 11.25 0.255096 13.3766 0.255096 16H1.7551C1.7551 14.2051 3.21017 12.75 5.0051 12.75V11.25Z" fill="#EB982F"/>
<path d="M11.2551 5C11.2551 6.79493 9.80002 8.25 8.0051 8.25V9.75C10.6284 9.75 12.7551 7.62335 12.7551 5H11.2551ZM8.0051 8.25C6.21017 8.25 4.7551 6.79493 4.7551 5H3.2551C3.2551 7.62335 5.38174 9.75 8.0051 9.75V8.25ZM4.7551 5C4.7551 3.20507 6.21017 1.75 8.0051 1.75V0.25C5.38174 0.25 3.2551 2.37665 3.2551 5H4.7551ZM8.0051 1.75C9.80002 1.75 11.2551 3.20507 11.2551 5H12.7551C12.7551 2.37665 10.6284 0.25 8.0051 0.25V1.75ZM5.0051 12.75H11.0051V11.25H5.0051V12.75ZM11.0051 19.25H5.0051V20.75H11.0051V19.25ZM5.0051 19.25C3.21017 19.25 1.7551 17.7949 1.7551 16H0.255096C0.255096 18.6234 2.38174 20.75 5.0051 20.75V19.25ZM14.2551 16C14.2551 17.7949 12.8 19.25 11.0051 19.25V20.75C13.6284 20.75 15.7551 18.6234 15.7551 16H14.2551ZM11.0051 12.75C12.8 12.75 14.2551 14.2051 14.2551 16H15.7551C15.7551 13.3766 13.6284 11.25 11.0051 11.25V12.75ZM5.0051 11.25C2.38174 11.25 0.255096 13.3766 0.255096 16H1.7551C1.7551 14.2051 3.21017 12.75 5.0051 12.75V11.25Z" fill="url(#paint0_linear_1_248)" fill-opacity="0.9"/>
<defs>
<linearGradient id="paint0_linear_1_248" x1="16.627" y1="10.5" x2="-1.72661" y2="10.5" gradientUnits="userSpaceOnUse">
<stop stop-color="#E14E83"/>
<stop offset="0.494792" stop-color="#F86F6F" stop-opacity="0.37"/>
</linearGradient>
</defs>
</svg>
