<svg width="23" height="24" viewBox="0 0 23 24" fill="none" xmlns="http://www.w3.org/2000/svg">
<path d="M11.5063 14.5263C12.9013 14.5263 14.0323 13.3953 14.0323 12.0003C14.0323 10.6052 12.9013 9.4743 11.5063 9.4743C10.1112 9.4743 8.9803 10.6052 8.9803 12.0003C8.9803 13.3953 10.1112 14.5263 11.5063 14.5263Z" fill="#EB982F"/>
<path d="M11.5063 14.5263C12.9013 14.5263 14.0323 13.3953 14.0323 12.0003C14.0323 10.6052 12.9013 9.4743 11.5063 9.4743C10.1112 9.4743 8.9803 10.6052 8.9803 12.0003C8.9803 13.3953 10.1112 14.5263 11.5063 14.5263Z" fill="url(#paint0_linear_1_249)" fill-opacity="0.9"/>
<path d="M11.5063 14.5263C12.9013 14.5263 14.0323 13.3953 14.0323 12.0003C14.0323 10.6052 12.9013 9.4743 11.5063 9.4743C10.1112 9.4743 8.9803 10.6052 8.9803 12.0003C8.9803 13.3953 10.1112 14.5263 11.5063 14.5263Z" stroke="#EB982F" stroke-width="1.5"/>
<path d="M11.5063 14.5263C12.9013 14.5263 14.0323 13.3953 14.0323 12.0003C14.0323 10.6052 12.9013 9.4743 11.5063 9.4743C10.1112 9.4743 8.9803 10.6052 8.9803 12.0003C8.9803 13.3953 10.1112 14.5263 11.5063 14.5263Z" stroke="url(#paint1_linear_1_249)" stroke-opacity="0.9" stroke-width="1.5"/>
<mask id="path-2-inside-1_1_249" fill="white">
<path d="M3.16936 4.27051L3.48511 3.72238C3.36115 3.6507 3.2165 3.62329 3.07491 3.64463C2.93331 3.66598 2.80318 3.73481 2.70585 3.83983L3.16936 4.27051ZM0.644645 8.64551L0.0409355 8.45859C-0.00108438 8.59526 0.00451898 8.74214 0.0568289 8.87521C0.109139 9.00828 0.205059 9.11966 0.328898 9.19113L0.644645 8.64551ZM0.642119 15.3533L0.326371 14.8064C0.202266 14.8779 0.106163 14.9895 0.053837 15.1228C0.00151085 15.2562 -0.00392918 15.4033 0.0384097 15.5402L0.642119 15.3533ZM3.1681 19.7283L2.70458 20.1577C2.80191 20.2627 2.93205 20.3315 3.07365 20.3529C3.21524 20.3742 3.35988 20.3468 3.48385 20.2751L3.1681 19.7283ZM8.97786 23.0815H8.34636C8.34629 23.2249 8.39502 23.364 8.48454 23.4761C8.57407 23.5881 8.69905 23.6663 8.83893 23.6978L8.97786 23.0815ZM14.0311 23.084L14.1713 23.7004C14.3109 23.6686 14.4356 23.5903 14.5249 23.4783C14.6142 23.3663 14.6627 23.2272 14.6626 23.084H14.0323H14.0311ZM19.8421 19.7295L19.5264 20.2764C19.6503 20.3481 19.795 20.3755 19.9366 20.3541C20.0782 20.3328 20.2083 20.264 20.3056 20.1589L19.8421 19.7295ZM22.3656 15.352L22.9693 15.5389C23.0113 15.4022 23.0057 15.2554 22.9534 15.1223C22.9011 14.9892 22.8051 14.8779 22.6813 14.8064L22.3656 15.352ZM22.3681 8.64425L22.6838 9.19113C22.8079 9.11961 22.904 9.00802 22.9564 8.87468C23.0087 8.74134 23.0141 8.59417 22.9718 8.45733L22.3681 8.64425ZM19.8421 4.26799L20.3056 3.83857C20.2083 3.73354 20.0782 3.66471 19.9366 3.64337C19.795 3.62203 19.6503 3.64944 19.5264 3.72111L19.8421 4.26799ZM14.0323 0.917274H14.6638C14.6637 0.774269 14.615 0.635549 14.5258 0.523814C14.4365 0.412079 14.312 0.333945 14.1725 0.302198L14.0323 0.917274ZM8.98038 0.914748L8.84019 0.298409C8.70031 0.329955 8.57533 0.40817 8.48581 0.520187C8.39629 0.632204 8.34755 0.771354 8.34762 0.914748H8.97912H8.98038ZM1.24835 8.83244C1.72222 7.293 2.5368 5.8801 3.63162 4.69867L2.70585 3.83983C1.48183 5.16015 0.570975 6.73798 0.0409355 8.45859L1.24835 8.83244ZM2.20823 17.3677C1.80685 16.6725 1.48447 15.9345 1.24709 15.1676L0.0396726 15.5414C0.305744 16.3982 0.66667 17.2226 1.11574 17.9992L2.20823 17.3677ZM3.63288 19.3001C3.08793 18.711 2.60924 18.0629 2.20823 17.3677L1.11574 17.9992C1.56365 18.7761 2.09699 19.5005 2.70585 20.1589L3.63288 19.3001ZM13.8922 22.4702C12.3216 22.8278 10.6907 22.8269 9.12057 22.4677L8.84019 23.6978C10.5948 24.0994 12.4173 24.1007 14.1725 23.7016L13.8922 22.4702ZM21.7644 15.1676C21.2905 16.707 20.4759 18.1199 19.3811 19.3014L20.3069 20.1602C21.5309 18.8399 22.4417 17.2608 22.9718 15.5402L21.7644 15.1676ZM20.8045 6.63231C21.2137 7.34337 21.5332 8.08096 21.7669 8.83244L22.9731 8.45859C22.7071 7.60179 22.3462 6.7774 21.897 6.00081L20.8045 6.63231ZM19.3798 4.69993C19.9252 5.28869 20.4039 5.93689 20.8045 6.63231L21.897 6.00081C21.4491 5.22388 20.9158 4.49948 20.3069 3.8411L19.3798 4.69993ZM9.12057 1.52982C10.6911 1.17228 12.322 1.17314 13.8922 1.53235L14.1725 0.302198C12.4179 -0.0994494 10.5954 -0.100745 8.84019 0.298409L9.12057 1.52982ZM9.61188 3.25002V0.913485H8.34889V3.25002H9.61188ZM5.50716 4.88938L3.48511 3.72238L2.85362 4.81486L4.8744 5.98313L5.50716 4.88938ZM2.34968 13.6394L0.326371 14.8064L0.95913 15.9001L2.97991 14.7331L2.34968 13.6394ZM2.98118 9.26438L0.960393 8.09864L0.328898 9.19239L2.34968 10.3581L2.98118 9.26438ZM9.61188 23.0815V20.7488H8.34889V23.0815H9.61188ZM4.87566 18.0144L2.85362 19.1814L3.48511 20.2751L5.5059 19.1081L4.87566 18.0144ZM20.1591 19.1826L18.1371 18.0144L17.5056 19.1094L19.5264 20.2764L20.1591 19.1826ZM14.6638 23.0853V20.7488H13.4009V23.0853H14.6638ZM22.0536 8.09738L20.0316 9.26438L20.663 10.3581L22.6838 9.19113L22.0536 8.09738ZM22.6826 14.8051L20.663 13.6419L20.0316 14.7357L22.0523 15.9014L22.6838 14.8076L22.6826 14.8051ZM14.6638 3.25002V0.917274H13.4009V3.25002H14.6638ZM19.5276 3.72238L17.5056 4.89064L18.1371 5.98439L20.1591 4.81613L19.5276 3.72238ZM13.4009 3.25002C13.4009 5.68001 16.0317 7.19939 18.1371 5.98439L17.5056 4.89064C17.2175 5.05697 16.8907 5.14451 16.558 5.14446C16.2254 5.1444 15.8986 5.05676 15.6106 4.89034C15.3225 4.72392 15.0834 4.48459 14.9172 4.19642C14.751 3.90826 14.6636 3.58267 14.6638 3.25002H13.4009ZM20.0316 9.26564C17.9261 10.4806 17.9261 13.5194 20.0316 14.7344L20.663 13.6406C20.3751 13.4744 20.1359 13.2352 19.9697 12.9472C19.8034 12.6592 19.7159 12.3326 19.7159 12C19.7159 11.6675 19.8034 11.3408 19.9697 11.0528C20.1359 10.7648 20.3751 10.5257 20.663 10.3594L20.0316 9.26564ZM18.1371 18.0156C16.0317 16.8006 13.4009 18.3175 13.4009 20.7488H14.6638C14.6638 20.4162 14.7514 20.0908 14.9177 19.8028C15.084 19.5148 15.3231 19.2757 15.6111 19.1094C15.8991 18.9431 16.2258 18.8556 16.5583 18.8556C16.8909 18.8556 17.2176 18.9431 17.5056 19.1094L18.1371 18.0156ZM9.61188 20.7488C9.61188 18.3188 6.98107 16.8006 4.87566 18.0156L5.50716 19.1094C5.79525 18.9431 6.12205 18.8555 6.45471 18.8556C6.78736 18.8556 7.11414 18.9433 7.40217 19.1097C7.69021 19.2761 7.92934 19.5154 8.09553 19.8036C8.26172 20.0918 8.3491 20.4186 8.34889 20.7513H9.61188V20.7488ZM2.98118 14.7344C5.08658 13.5194 5.08658 10.4806 2.98118 9.26564L2.34968 10.3594C3.61267 11.0881 3.61267 12.9094 2.34968 13.6394L2.98118 14.7344ZM8.34889 3.25002C8.34866 3.58246 8.26095 3.90899 8.09458 4.1968C7.92821 4.48462 7.68904 4.72359 7.40108 4.88971C7.11312 5.05583 6.78651 5.14325 6.45407 5.14319C6.12163 5.14314 5.79506 5.0556 5.50716 4.88938L4.87566 5.98439C6.98107 7.19939 9.61188 5.68127 9.61188 3.25002H8.34889Z"/>
</mask>
<path d="M3.16936 4.27051L3.48511 3.72238C3.36115 3.6507 3.2165 3.62329 3.07491 3.64463C2.93331 3.66598 2.80318 3.73481 2.70585 3.83983L3.16936 4.27051ZM0.644645 8.64551L0.0409355 8.45859C-0.00108438 8.59526 0.00451898 8.74214 0.0568289 8.87521C0.109139 9.00828 0.205059 9.11966 0.328898 9.19113L0.644645 8.64551ZM0.642119 15.3533L0.326371 14.8064C0.202266 14.8779 0.106163 14.9895 0.053837 15.1228C0.00151085 15.2562 -0.00392918 15.4033 0.0384097 15.5402L0.642119 15.3533ZM3.1681 19.7283L2.70458 20.1577C2.80191 20.2627 2.93205 20.3315 3.07365 20.3529C3.21524 20.3742 3.35988 20.3468 3.48385 20.2751L3.1681 19.7283ZM8.97786 23.0815H8.34636C8.34629 23.2249 8.39502 23.364 8.48454 23.4761C8.57407 23.5881 8.69905 23.6663 8.83893 23.6978L8.97786 23.0815ZM14.0311 23.084L14.1713 23.7004C14.3109 23.6686 14.4356 23.5903 14.5249 23.4783C14.6142 23.3663 14.6627 23.2272 14.6626 23.084H14.0323H14.0311ZM19.8421 19.7295L19.5264 20.2764C19.6503 20.3481 19.795 20.3755 19.9366 20.3541C20.0782 20.3328 20.2083 20.264 20.3056 20.1589L19.8421 19.7295ZM22.3656 15.352L22.9693 15.5389C23.0113 15.4022 23.0057 15.2554 22.9534 15.1223C22.9011 14.9892 22.8051 14.8779 22.6813 14.8064L22.3656 15.352ZM22.3681 8.64425L22.6838 9.19113C22.8079 9.11961 22.904 9.00802 22.9564 8.87468C23.0087 8.74134 23.0141 8.59417 22.9718 8.45733L22.3681 8.64425ZM19.8421 4.26799L20.3056 3.83857C20.2083 3.73354 20.0782 3.66471 19.9366 3.64337C19.795 3.62203 19.6503 3.64944 19.5264 3.72111L19.8421 4.26799ZM14.0323 0.917274H14.6638C14.6637 0.774269 14.615 0.635549 14.5258 0.523814C14.4365 0.412079 14.312 0.333945 14.1725 0.302198L14.0323 0.917274ZM8.98038 0.914748L8.84019 0.298409C8.70031 0.329955 8.57533 0.40817 8.48581 0.520187C8.39629 0.632204 8.34755 0.771354 8.34762 0.914748H8.97912H8.98038ZM1.24835 8.83244C1.72222 7.293 2.5368 5.8801 3.63162 4.69867L2.70585 3.83983C1.48183 5.16015 0.570975 6.73798 0.0409355 8.45859L1.24835 8.83244ZM2.20823 17.3677C1.80685 16.6725 1.48447 15.9345 1.24709 15.1676L0.0396726 15.5414C0.305744 16.3982 0.66667 17.2226 1.11574 17.9992L2.20823 17.3677ZM3.63288 19.3001C3.08793 18.711 2.60924 18.0629 2.20823 17.3677L1.11574 17.9992C1.56365 18.7761 2.09699 19.5005 2.70585 20.1589L3.63288 19.3001ZM13.8922 22.4702C12.3216 22.8278 10.6907 22.8269 9.12057 22.4677L8.84019 23.6978C10.5948 24.0994 12.4173 24.1007 14.1725 23.7016L13.8922 22.4702ZM21.7644 15.1676C21.2905 16.707 20.4759 18.1199 19.3811 19.3014L20.3069 20.1602C21.5309 18.8399 22.4417 17.2608 22.9718 15.5402L21.7644 15.1676ZM20.8045 6.63231C21.2137 7.34337 21.5332 8.08096 21.7669 8.83244L22.9731 8.45859C22.7071 7.60179 22.3462 6.7774 21.897 6.00081L20.8045 6.63231ZM19.3798 4.69993C19.9252 5.28869 20.4039 5.93689 20.8045 6.63231L21.897 6.00081C21.4491 5.22388 20.9158 4.49948 20.3069 3.8411L19.3798 4.69993ZM9.12057 1.52982C10.6911 1.17228 12.322 1.17314 13.8922 1.53235L14.1725 0.302198C12.4179 -0.0994494 10.5954 -0.100745 8.84019 0.298409L9.12057 1.52982ZM9.61188 3.25002V0.913485H8.34889V3.25002H9.61188ZM5.50716 4.88938L3.48511 3.72238L2.85362 4.81486L4.8744 5.98313L5.50716 4.88938ZM2.34968 13.6394L0.326371 14.8064L0.95913 15.9001L2.97991 14.7331L2.34968 13.6394ZM2.98118 9.26438L0.960393 8.09864L0.328898 9.19239L2.34968 10.3581L2.98118 9.26438ZM9.61188 23.0815V20.7488H8.34889V23.0815H9.61188ZM4.87566 18.0144L2.85362 19.1814L3.48511 20.2751L5.5059 19.1081L4.87566 18.0144ZM20.1591 19.1826L18.1371 18.0144L17.5056 19.1094L19.5264 20.2764L20.1591 19.1826ZM14.6638 23.0853V20.7488H13.4009V23.0853H14.6638ZM22.0536 8.09738L20.0316 9.26438L20.663 10.3581L22.6838 9.19113L22.0536 8.09738ZM22.6826 14.8051L20.663 13.6419L20.0316 14.7357L22.0523 15.9014L22.6838 14.8076L22.6826 14.8051ZM14.6638 3.25002V0.917274H13.4009V3.25002H14.6638ZM19.5276 3.72238L17.5056 4.89064L18.1371 5.98439L20.1591 4.81613L19.5276 3.72238ZM13.4009 3.25002C13.4009 5.68001 16.0317 7.19939 18.1371 5.98439L17.5056 4.89064C17.2175 5.05697 16.8907 5.14451 16.558 5.14446C16.2254 5.1444 15.8986 5.05676 15.6106 4.89034C15.3225 4.72392 15.0834 4.48459 14.9172 4.19642C14.751 3.90826 14.6636 3.58267 14.6638 3.25002H13.4009ZM20.0316 9.26564C17.9261 10.4806 17.9261 13.5194 20.0316 14.7344L20.663 13.6406C20.3751 13.4744 20.1359 13.2352 19.9697 12.9472C19.8034 12.6592 19.7159 12.3326 19.7159 12C19.7159 11.6675 19.8034 11.3408 19.9697 11.0528C20.1359 10.7648 20.3751 10.5257 20.663 10.3594L20.0316 9.26564ZM18.1371 18.0156C16.0317 16.8006 13.4009 18.3175 13.4009 20.7488H14.6638C14.6638 20.4162 14.7514 20.0908 14.9177 19.8028C15.084 19.5148 15.3231 19.2757 15.6111 19.1094C15.8991 18.9431 16.2258 18.8556 16.5583 18.8556C16.8909 18.8556 17.2176 18.9431 17.5056 19.1094L18.1371 18.0156ZM9.61188 20.7488C9.61188 18.3188 6.98107 16.8006 4.87566 18.0156L5.50716 19.1094C5.79525 18.9431 6.12205 18.8555 6.45471 18.8556C6.78736 18.8556 7.11414 18.9433 7.40217 19.1097C7.69021 19.2761 7.92934 19.5154 8.09553 19.8036C8.26172 20.0918 8.3491 20.4186 8.34889 20.7513H9.61188V20.7488ZM2.98118 14.7344C5.08658 13.5194 5.08658 10.4806 2.98118 9.26564L2.34968 10.3594C3.61267 11.0881 3.61267 12.9094 2.34968 13.6394L2.98118 14.7344ZM8.34889 3.25002C8.34866 3.58246 8.26095 3.90899 8.09458 4.1968C7.92821 4.48462 7.68904 4.72359 7.40108 4.88971C7.11312 5.05583 6.78651 5.14325 6.45407 5.14319C6.12163 5.14314 5.79506 5.0556 5.50716 4.88938L4.87566 5.98439C6.98107 7.19939 9.61188 5.68127 9.61188 3.25002H8.34889Z" fill="#EB982F"/>
<path d="M3.16936 4.27051L3.48511 3.72238C3.36115 3.6507 3.2165 3.62329 3.07491 3.64463C2.93331 3.66598 2.80318 3.73481 2.70585 3.83983L3.16936 4.27051ZM0.644645 8.64551L0.0409355 8.45859C-0.00108438 8.59526 0.00451898 8.74214 0.0568289 8.87521C0.109139 9.00828 0.205059 9.11966 0.328898 9.19113L0.644645 8.64551ZM0.642119 15.3533L0.326371 14.8064C0.202266 14.8779 0.106163 14.9895 0.053837 15.1228C0.00151085 15.2562 -0.00392918 15.4033 0.0384097 15.5402L0.642119 15.3533ZM3.1681 19.7283L2.70458 20.1577C2.80191 20.2627 2.93205 20.3315 3.07365 20.3529C3.21524 20.3742 3.35988 20.3468 3.48385 20.2751L3.1681 19.7283ZM8.97786 23.0815H8.34636C8.34629 23.2249 8.39502 23.364 8.48454 23.4761C8.57407 23.5881 8.69905 23.6663 8.83893 23.6978L8.97786 23.0815ZM14.0311 23.084L14.1713 23.7004C14.3109 23.6686 14.4356 23.5903 14.5249 23.4783C14.6142 23.3663 14.6627 23.2272 14.6626 23.084H14.0323H14.0311ZM19.8421 19.7295L19.5264 20.2764C19.6503 20.3481 19.795 20.3755 19.9366 20.3541C20.0782 20.3328 20.2083 20.264 20.3056 20.1589L19.8421 19.7295ZM22.3656 15.352L22.9693 15.5389C23.0113 15.4022 23.0057 15.2554 22.9534 15.1223C22.9011 14.9892 22.8051 14.8779 22.6813 14.8064L22.3656 15.352ZM22.3681 8.64425L22.6838 9.19113C22.8079 9.11961 22.904 9.00802 22.9564 8.87468C23.0087 8.74134 23.0141 8.59417 22.9718 8.45733L22.3681 8.64425ZM19.8421 4.26799L20.3056 3.83857C20.2083 3.73354 20.0782 3.66471 19.9366 3.64337C19.795 3.62203 19.6503 3.64944 19.5264 3.72111L19.8421 4.26799ZM14.0323 0.917274H14.6638C14.6637 0.774269 14.615 0.635549 14.5258 0.523814C14.4365 0.412079 14.312 0.333945 14.1725 0.302198L14.0323 0.917274ZM8.98038 0.914748L8.84019 0.298409C8.70031 0.329955 8.57533 0.40817 8.48581 0.520187C8.39629 0.632204 8.34755 0.771354 8.34762 0.914748H8.97912H8.98038ZM1.24835 8.83244C1.72222 7.293 2.5368 5.8801 3.63162 4.69867L2.70585 3.83983C1.48183 5.16015 0.570975 6.73798 0.0409355 8.45859L1.24835 8.83244ZM2.20823 17.3677C1.80685 16.6725 1.48447 15.9345 1.24709 15.1676L0.0396726 15.5414C0.305744 16.3982 0.66667 17.2226 1.11574 17.9992L2.20823 17.3677ZM3.63288 19.3001C3.08793 18.711 2.60924 18.0629 2.20823 17.3677L1.11574 17.9992C1.56365 18.7761 2.09699 19.5005 2.70585 20.1589L3.63288 19.3001ZM13.8922 22.4702C12.3216 22.8278 10.6907 22.8269 9.12057 22.4677L8.84019 23.6978C10.5948 24.0994 12.4173 24.1007 14.1725 23.7016L13.8922 22.4702ZM21.7644 15.1676C21.2905 16.707 20.4759 18.1199 19.3811 19.3014L20.3069 20.1602C21.5309 18.8399 22.4417 17.2608 22.9718 15.5402L21.7644 15.1676ZM20.8045 6.63231C21.2137 7.34337 21.5332 8.08096 21.7669 8.83244L22.9731 8.45859C22.7071 7.60179 22.3462 6.7774 21.897 6.00081L20.8045 6.63231ZM19.3798 4.69993C19.9252 5.28869 20.4039 5.93689 20.8045 6.63231L21.897 6.00081C21.4491 5.22388 20.9158 4.49948 20.3069 3.8411L19.3798 4.69993ZM9.12057 1.52982C10.6911 1.17228 12.322 1.17314 13.8922 1.53235L14.1725 0.302198C12.4179 -0.0994494 10.5954 -0.100745 8.84019 0.298409L9.12057 1.52982ZM9.61188 3.25002V0.913485H8.34889V3.25002H9.61188ZM5.50716 4.88938L3.48511 3.72238L2.85362 4.81486L4.8744 5.98313L5.50716 4.88938ZM2.34968 13.6394L0.326371 14.8064L0.95913 15.9001L2.97991 14.7331L2.34968 13.6394ZM2.98118 9.26438L0.960393 8.09864L0.328898 9.19239L2.34968 10.3581L2.98118 9.26438ZM9.61188 23.0815V20.7488H8.34889V23.0815H9.61188ZM4.87566 18.0144L2.85362 19.1814L3.48511 20.2751L5.5059 19.1081L4.87566 18.0144ZM20.1591 19.1826L18.1371 18.0144L17.5056 19.1094L19.5264 20.2764L20.1591 19.1826ZM14.6638 23.0853V20.7488H13.4009V23.0853H14.6638ZM22.0536 8.09738L20.0316 9.26438L20.663 10.3581L22.6838 9.19113L22.0536 8.09738ZM22.6826 14.8051L20.663 13.6419L20.0316 14.7357L22.0523 15.9014L22.6838 14.8076L22.6826 14.8051ZM14.6638 3.25002V0.917274H13.4009V3.25002H14.6638ZM19.5276 3.72238L17.5056 4.89064L18.1371 5.98439L20.1591 4.81613L19.5276 3.72238ZM13.4009 3.25002C13.4009 5.68001 16.0317 7.19939 18.1371 5.98439L17.5056 4.89064C17.2175 5.05697 16.8907 5.14451 16.558 5.14446C16.2254 5.1444 15.8986 5.05676 15.6106 4.89034C15.3225 4.72392 15.0834 4.48459 14.9172 4.19642C14.751 3.90826 14.6636 3.58267 14.6638 3.25002H13.4009ZM20.0316 9.26564C17.9261 10.4806 17.9261 13.5194 20.0316 14.7344L20.663 13.6406C20.3751 13.4744 20.1359 13.2352 19.9697 12.9472C19.8034 12.6592 19.7159 12.3326 19.7159 12C19.7159 11.6675 19.8034 11.3408 19.9697 11.0528C20.1359 10.7648 20.3751 10.5257 20.663 10.3594L20.0316 9.26564ZM18.1371 18.0156C16.0317 16.8006 13.4009 18.3175 13.4009 20.7488H14.6638C14.6638 20.4162 14.7514 20.0908 14.9177 19.8028C15.084 19.5148 15.3231 19.2757 15.6111 19.1094C15.8991 18.9431 16.2258 18.8556 16.5583 18.8556C16.8909 18.8556 17.2176 18.9431 17.5056 19.1094L18.1371 18.0156ZM9.61188 20.7488C9.61188 18.3188 6.98107 16.8006 4.87566 18.0156L5.50716 19.1094C5.79525 18.9431 6.12205 18.8555 6.45471 18.8556C6.78736 18.8556 7.11414 18.9433 7.40217 19.1097C7.69021 19.2761 7.92934 19.5154 8.09553 19.8036C8.26172 20.0918 8.3491 20.4186 8.34889 20.7513H9.61188V20.7488ZM2.98118 14.7344C5.08658 13.5194 5.08658 10.4806 2.98118 9.26564L2.34968 10.3594C3.61267 11.0881 3.61267 12.9094 2.34968 13.6394L2.98118 14.7344ZM8.34889 3.25002C8.34866 3.58246 8.26095 3.90899 8.09458 4.1968C7.92821 4.48462 7.68904 4.72359 7.40108 4.88971C7.11312 5.05583 6.78651 5.14325 6.45407 5.14319C6.12163 5.14314 5.79506 5.0556 5.50716 4.88938L4.87566 5.98439C6.98107 7.19939 9.61188 5.68127 9.61188 3.25002H8.34889Z" fill="url(#paint2_linear_1_249)" fill-opacity="0.9"/>
<path d="M14.0323 2.50002H13.4009V4.00002H14.0323V2.50002ZM19.6978 13.8125L19.382 14.3594L20.6811 15.1094L20.9968 14.5625L19.6978 13.8125ZM17.1718 18.1875L16.8561 18.7344L18.1551 19.4844L18.4708 18.9375L17.1718 18.1875ZM2.01592 14.5625L2.33166 15.1094L3.63069 14.3594L3.31494 13.8125L2.01592 14.5625ZM4.5419 5.06251L4.22615 5.60939L5.52518 6.3594L5.84093 5.81253L4.5419 5.06251ZM1.49107 18.6486L2.58356 18.0171L1.83289 16.7184L0.740407 17.3499L1.49107 18.6486ZM21.5217 5.35149L20.4292 5.98298L21.1798 7.28163L22.2723 6.65014L21.5217 5.35149ZM8.34889 4.00002H9.61188V2.50002H8.34889V4.00002ZM14.6638 19.9988H13.4009V21.4988H14.6638V19.9988ZM13.4009 4.00002H14.6638V2.50002H13.4009V4.00002ZM16.8561 5.26565L17.4876 6.3594L18.7866 5.60939L18.1551 4.51563L16.8561 5.26565ZM3.16936 4.27051L2.14834 5.36938L3.52866 6.65191L4.46914 5.01923L3.16936 4.27051ZM0.644645 8.64551L1.94292 9.39683L2.885 7.76892L1.0883 7.21263L0.644645 8.64551ZM0.0409355 8.45859L-1.39259 8.01699L-1.39283 8.01777L0.0409355 8.45859ZM0.328898 9.19113L-0.420865 10.4903L0.876756 11.2392L1.62717 9.94244L0.328898 9.19113ZM0.642119 15.3533L1.08578 16.7861L2.88063 16.2304L1.94115 14.6032L0.642119 15.3533ZM0.0384097 15.5402L-1.39457 15.9836L-0.951107 17.4168L0.482068 16.9731L0.0384097 15.5402ZM3.1681 19.7283L4.46713 18.9782L3.52739 17.3506L2.14869 18.6279L3.1681 19.7283ZM2.70458 20.1577L1.68517 19.0573L0.584639 20.0769L1.60438 21.1773L2.70458 20.1577ZM3.48385 20.2751L4.23464 21.5737L5.53244 20.8234L4.78288 19.5251L3.48385 20.2751ZM8.97786 23.0815L10.4411 23.4113L10.8536 21.5815H8.97786V23.0815ZM8.34636 23.0815V21.5815H6.84711L6.84636 23.0807L8.34636 23.0815ZM8.83893 23.6978L8.50893 25.1611L9.97234 25.4911L10.3022 24.0277L8.83893 23.6978ZM14.0311 23.084V21.584H12.1516L12.5684 23.4167L14.0311 23.084ZM14.1713 23.7004L12.7086 24.0331L13.0414 25.496L14.5043 25.1629L14.1713 23.7004ZM14.6626 23.084L16.1626 23.0826L16.1611 21.584H14.6626V23.084ZM19.8421 19.7295L20.8615 18.6292L19.4828 17.3519L18.5431 18.9795L19.8421 19.7295ZM20.3056 20.1589L21.4058 21.1785L22.4256 20.0781L21.325 19.0586L20.3056 20.1589ZM22.3656 15.352L21.0673 14.6007L20.1252 16.2286L21.9219 16.7849L22.3656 15.352ZM22.9693 15.5389L22.5256 16.9718L23.9613 17.4163L24.403 15.9797L22.9693 15.5389ZM22.6813 14.8064L23.4311 13.5072L22.1334 12.7583L21.383 14.0551L22.6813 14.8064ZM22.3681 8.64425L21.9244 7.21136L20.1296 7.7671L21.0691 9.39427L22.3681 8.64425ZM22.9718 8.45733L24.4048 8.01396L23.9613 6.58069L22.5281 7.02444L22.9718 8.45733ZM19.8421 4.26799L18.5431 5.01801L19.4828 6.64563L20.8615 5.36835L19.8421 4.26799ZM20.3056 3.83857L21.325 4.93893L22.4256 3.91937L21.4058 2.81899L20.3056 3.83857ZM19.5264 3.72111L18.7756 2.42253L17.4778 3.17288L18.2273 4.47113L19.5264 3.72111ZM14.0323 0.917274L12.5699 0.583934L12.152 2.41727H14.0323V0.917274ZM14.6638 0.917274H16.1638V0.915704L14.6638 0.917274ZM8.98038 0.914748V2.41475H10.8599L10.443 0.582058L8.98038 0.914748ZM8.34762 0.914748L6.84762 0.915498L6.84837 2.41475H8.34762V0.914748ZM20.0316 14.7344L19.2818 16.0336L20.5807 16.7832L21.3306 15.4844L20.0316 14.7344ZM2.98118 14.7344L1.68177 15.4838L2.43136 16.7835L3.73092 16.0336L2.98118 14.7344ZM4.87566 5.98439L3.57626 5.23503L2.82711 6.53406L4.12592 7.28358L4.87566 5.98439ZM1.24835 8.83244L0.804699 10.2653L2.23995 10.7097L2.68197 9.27373L1.24835 8.83244ZM3.63162 4.69867L4.73184 5.71823L5.75085 4.6186L4.65178 3.599L3.63162 4.69867ZM2.20823 17.3677L3.50753 16.6182L3.50729 16.6178L2.20823 17.3677ZM1.24709 15.1676L2.68002 14.7241L2.23646 13.291L0.803436 13.7347L1.24709 15.1676ZM0.0396726 15.5414L-0.403983 14.1086L-1.83809 14.5526L-1.39284 15.9863L0.0396726 15.5414ZM1.11574 17.9992L2.41524 17.25L2.41429 17.2484L1.11574 17.9992ZM3.63288 19.3001L4.65229 20.4005L5.75185 19.3818L4.734 18.2815L3.63288 19.3001ZM2.70585 20.1589L1.60455 21.1773L2.62389 22.2796L3.72526 21.2593L2.70585 20.1589ZM13.8922 22.4702L15.3547 22.1372L15.0217 20.6747L13.5592 21.0076L13.8922 22.4702ZM9.12057 22.4677L9.45509 21.0055L7.99169 20.6707L7.65808 22.1343L9.12057 22.4677ZM8.84019 23.6978L7.3777 23.3645L7.04466 24.8257L8.50552 25.16L8.84019 23.6978ZM14.1725 23.7016L14.5051 25.1643L15.9682 24.8316L15.6351 23.3686L14.1725 23.7016ZM21.7644 15.1676L22.2067 13.7343L20.7724 13.2917L20.3308 14.7263L21.7644 15.1676ZM19.3811 19.3014L18.2809 18.2818L17.2619 19.3814L18.361 20.401L19.3811 19.3014ZM20.3069 20.1602L19.2867 21.2599L20.3868 22.2804L21.4069 21.18L20.3069 20.1602ZM22.9718 15.5402L24.4053 15.9818L24.8467 14.549L23.4141 14.1069L22.9718 15.5402ZM20.8045 6.63231L22.1046 5.88412L22.1043 5.88362L20.8045 6.63231ZM21.7669 8.83244L20.3345 9.27779L20.7795 10.7089L22.211 10.2652L21.7669 8.83244ZM22.9731 8.45859L23.4171 9.89135L24.8505 9.44708L24.4056 8.01391L22.9731 8.45859ZM21.897 6.00081L20.5974 6.74995L20.5985 6.75183L21.897 6.00081ZM19.3798 4.69993L18.3604 3.59957L17.2602 4.6189L18.2794 5.71926L19.3798 4.69993ZM20.3069 3.8411L21.4081 2.82264L20.3888 1.72044L19.2875 2.74073L20.3069 3.8411ZM9.12057 1.52982L7.65801 1.86284L7.99101 3.32536L9.45355 2.9924L9.12057 1.52982ZM13.8922 1.53235L13.5576 2.99457L15.021 3.32936L15.3546 1.86569L13.8922 1.53235ZM9.61188 0.913485H11.1119V-0.586515H9.61188V0.913485ZM8.34889 0.913485V-0.586515H6.84889V0.913485H8.34889ZM8.34889 3.25002L9.84889 3.25106V3.25002H8.34889ZM5.50716 4.88938L6.25716 3.59034L6.25695 3.59022L5.50716 4.88938ZM2.85362 4.81486L1.55496 4.0642L0.804347 5.36276L2.10286 6.11347L2.85362 4.81486ZM4.8744 5.98313L4.12365 7.28173L5.42186 8.03226L6.17278 6.73427L4.8744 5.98313ZM0.95913 15.9001L-0.339249 16.6513L0.411316 17.9487L1.70928 17.1991L0.95913 15.9001ZM2.97991 14.7331L3.73006 16.0321L5.02776 15.2827L4.27959 13.9842L2.97991 14.7331ZM2.98118 9.26438L4.28021 10.0144L5.0305 8.71489L3.73071 7.96507L2.98118 9.26438ZM0.960393 8.09864L1.70993 6.79933L0.411104 6.05007L-0.338636 7.34862L0.960393 8.09864ZM0.328898 9.19239L-0.970131 8.44237L-1.72042 9.74188L-0.420639 10.4917L0.328898 9.19239ZM2.34968 10.3581L1.60015 11.6574L2.89897 12.4067L3.64871 11.1081L2.34968 10.3581ZM9.61188 23.0815V24.5815H11.1119V23.0815H9.61188ZM8.34889 20.7488V19.2488H6.84889V20.7488H8.34889ZM8.34889 23.0815H6.84889V24.5815H8.34889V23.0815ZM4.87566 18.0144L6.17534 17.2655L5.42593 15.9649L4.12587 16.7152L4.87566 18.0144ZM2.85362 19.1814L2.10382 17.8822L0.804443 18.6322L1.55459 19.9314L2.85362 19.1814ZM3.48511 20.2751L2.18608 21.0252L2.93617 22.3243L4.23526 21.5741L3.48511 20.2751ZM5.5059 19.1081L6.25604 20.4071L7.55374 19.6577L6.80557 18.3592L5.5059 19.1081ZM20.1591 19.1826L21.4575 19.9338L22.2091 18.6347L20.9095 17.8838L20.1591 19.1826ZM18.1371 18.0144L18.8875 16.7156L17.5876 15.9646L16.8377 17.265L18.1371 18.0144ZM14.6638 23.0853V24.5853H16.1638V23.0853H14.6638ZM14.6638 20.7488L13.1638 20.7487V20.7488H14.6638ZM13.4009 23.0853H11.9009V24.5853H13.4009V23.0853ZM22.0536 8.09738L23.3533 7.34849L22.6039 6.0479L21.3038 6.79822L22.0536 8.09738ZM20.0316 9.26438L19.2818 7.96522L17.9824 8.71515L18.7325 10.0144L20.0316 9.26438ZM20.663 10.3581L19.364 11.1081L20.1141 12.4073L21.4132 11.6571L20.663 10.3581ZM22.6826 14.8051L24.0243 14.1346L23.8225 13.7307L23.4312 13.5053L22.6826 14.8051ZM20.663 13.6419L21.4117 12.3421L20.1133 11.5942L19.364 12.8919L20.663 13.6419ZM20.0316 14.7357L18.7325 13.9856L17.9822 15.2851L19.282 16.035L20.0316 14.7357ZM22.0523 15.9014L21.3028 17.2007L22.6016 17.95L23.3514 16.6514L22.0523 15.9014ZM22.6838 14.8076L23.9829 15.5577L24.3863 14.8589L24.0256 14.1371L22.6838 14.8076ZM14.6638 3.25002L16.1638 3.25098V3.25002H14.6638ZM13.4009 0.917274V-0.582726H11.9009V0.917274H13.4009ZM19.5276 3.72238L20.8266 2.97236L20.0764 1.67295L18.7772 2.42357L19.5276 3.72238ZM17.5056 4.89064L18.2556 6.18968L18.256 6.18945L17.5056 4.89064ZM18.1371 5.98439L18.8868 7.28358L18.8875 7.2832L18.1371 5.98439ZM20.1591 4.81613L20.9095 6.11493L22.2079 5.36475L21.4581 4.06611L20.1591 4.81613ZM20.0316 9.26564L21.3306 8.51563L20.5807 7.21687L19.2818 7.96646L20.0316 9.26564ZM20.663 13.6406L21.9621 14.3907L22.7121 13.0917L21.4131 12.3416L20.663 13.6406ZM20.663 10.3594L21.4131 11.6584L22.7121 10.9084L21.9621 9.60938L20.663 10.3594ZM18.1371 18.0156L19.4361 18.7657L20.1863 17.4664L18.8868 16.7165L18.1371 18.0156ZM4.87566 18.0156L4.12592 16.7165L2.82646 17.4664L3.57664 18.7657L4.87566 18.0156ZM5.50716 19.1094L4.20813 19.8594L4.95814 21.1584L6.25716 20.4084L5.50716 19.1094ZM8.34889 20.7513L6.84889 20.7503L6.84793 22.2513H8.34889V20.7513ZM9.61188 20.7513V22.2513H11.1119V20.7513H9.61188ZM2.98118 9.26564L3.73092 7.96646L2.43201 7.21687L1.68215 8.51563L2.98118 9.26564ZM2.34968 10.3594L1.05065 9.60938L0.300431 10.9088L1.60002 11.6586L2.34968 10.3594ZM4.46914 5.01923L4.78489 4.4711L2.18533 2.97366L1.86959 3.5218L4.46914 5.01923ZM4.2359 2.4238C3.81748 2.18188 3.32927 2.08935 2.85134 2.16139L3.29848 5.12788C3.10374 5.15723 2.90481 5.11953 2.73432 5.02096L4.2359 2.4238ZM2.85134 2.16139C2.37341 2.23342 1.93416 2.46575 1.60564 2.82025L3.80605 4.85941C3.67219 5.00386 3.49321 5.09853 3.29848 5.12788L2.85134 2.16139ZM1.68482 4.9387L2.14834 5.36938L4.19038 3.17164L3.72687 2.74096L1.68482 4.9387ZM1.0883 7.21263L0.484591 7.0257L-0.40272 9.89148L0.20099 10.0784L1.0883 7.21263ZM-1.39283 8.01777C-1.53466 8.47906 -1.51574 8.97484 -1.33918 9.42399L1.45284 8.32644C1.52478 8.50945 1.53249 8.71146 1.4747 8.89942L-1.39283 8.01777ZM-1.33918 9.42399C-1.16262 9.87314 -0.838856 10.2491 -0.420865 10.4903L1.07866 7.89195C1.24897 7.99024 1.3809 8.14342 1.45284 8.32644L-1.33918 9.42399ZM1.62717 9.94244L1.94292 9.39683L-0.653632 7.8942L-0.969379 8.43981L1.62717 9.94244ZM1.94115 14.6032L1.6254 14.0564L-0.972657 15.5564L-0.656909 16.1033L1.94115 14.6032ZM-0.422605 13.5068C-0.8415 13.7482 -1.16588 14.1248 -1.34249 14.5749L1.45017 15.6708C1.3782 15.8542 1.24603 16.0076 1.07535 16.106L-0.422605 13.5068ZM-1.34249 14.5749C-1.51911 15.0249 -1.53747 15.5217 -1.39457 15.9836L1.47139 15.0968C1.52962 15.285 1.52213 15.4874 1.45017 15.6708L-1.34249 14.5749ZM0.482068 16.9731L1.08578 16.7861L0.198461 13.9204L-0.405248 14.1073L0.482068 16.9731ZM2.14869 18.6279L1.68517 19.0573L3.72399 21.258L4.18751 20.8286L2.14869 18.6279ZM1.60438 21.1773C1.93289 21.5317 2.37213 21.7641 2.85008 21.8361L3.29721 18.8696C3.49197 18.899 3.67094 18.9937 3.80479 19.1381L1.60438 21.1773ZM2.85008 21.8361C3.32801 21.9082 3.81622 21.8156 4.23464 21.5737L2.73305 18.9766C2.90354 18.878 3.10247 18.8403 3.29721 18.8696L2.85008 21.8361ZM4.78288 19.5251L4.46713 18.9782L1.86907 20.4783L2.18482 21.0251L4.78288 19.5251ZM8.97786 21.5815H8.34636V24.5815H8.97786V21.5815ZM6.84636 23.0807C6.84612 23.5647 7.01061 24.0344 7.31277 24.4125L9.65632 22.5396C9.77944 22.6937 9.84646 22.885 9.84636 23.0822L6.84636 23.0807ZM7.31277 24.4125C7.61494 24.7906 8.03679 25.0546 8.50893 25.1611L9.16893 22.2346C9.3613 22.278 9.53319 22.3855 9.65632 22.5396L7.31277 24.4125ZM10.3022 24.0277L10.4411 23.4113L7.51457 22.7517L7.37564 23.368L10.3022 24.0277ZM12.5684 23.4167L12.7086 24.0331L15.6339 23.3677L15.4937 22.7513L12.5684 23.4167ZM14.5043 25.1629C14.9756 25.0556 15.3965 24.7913 15.6978 24.4132L13.3519 22.5433C13.4747 22.3892 13.6462 22.2815 13.8383 22.2378L14.5043 25.1629ZM15.6978 24.4132C15.9992 24.0352 16.163 23.566 16.1626 23.0826L13.1626 23.0855C13.1624 22.8885 13.2292 22.6973 13.3519 22.5433L15.6978 24.4132ZM14.6626 21.584H14.0323V24.584H14.6626V21.584ZM14.0323 21.584H14.0311V24.584H14.0323V21.584ZM18.5431 18.9795L18.2273 19.5264L20.8254 21.0264L21.1411 20.4795L18.5431 18.9795ZM18.7756 21.575C19.194 21.8169 19.6822 21.9094 20.1601 21.8374L19.713 18.8709C19.9077 18.8415 20.1067 18.8792 20.2771 18.9778L18.7756 21.575ZM20.1601 21.8374C20.6381 21.7653 21.0773 21.533 21.4058 21.1785L19.2054 19.1394C19.3393 18.9949 19.5182 18.9003 19.713 18.8709L20.1601 21.8374ZM21.325 19.0586L20.8615 18.6292L18.8227 20.8299L19.2862 21.2593L21.325 19.0586ZM21.9219 16.7849L22.5256 16.9718L23.4129 14.106L22.8092 13.9191L21.9219 16.7849ZM24.403 15.9797C24.5449 15.5184 24.5259 15.0227 24.3494 14.5735L21.5574 15.6711C21.4854 15.4881 21.4777 15.2861 21.5355 15.0981L24.403 15.9797ZM24.3494 14.5735C24.1728 14.1244 23.8491 13.7484 23.4311 13.5072L21.9315 16.1056C21.7612 16.0073 21.6293 15.8541 21.5574 15.6711L24.3494 14.5735ZM21.383 14.0551L21.0673 14.6007L23.6638 16.1033L23.9796 15.5577L21.383 14.0551ZM21.0691 9.39427L21.3848 9.94114L23.9829 8.44111L23.6671 7.89424L21.0691 9.39427ZM23.4328 10.4908C23.8517 10.2493 24.1761 9.87269 24.3527 9.42263L21.56 8.32672C21.632 8.14334 21.7642 7.98987 21.9349 7.8915L23.4328 10.4908ZM24.3527 9.42263C24.5293 8.97257 24.5477 8.47583 24.4048 8.01396L21.5388 8.9007C21.4806 8.71251 21.4881 8.5101 21.56 8.32672L24.3527 9.42263ZM22.5281 7.02444L21.9244 7.21136L22.8117 10.0771L23.4154 9.89022L22.5281 7.02444ZM20.8615 5.36835L21.325 4.93893L19.2862 2.73821L18.8227 3.16763L20.8615 5.36835ZM21.4058 2.81899C21.0773 2.4645 20.6381 2.23216 20.1601 2.16012L19.713 5.12662C19.5182 5.09726 19.3393 5.00259 19.2054 4.85815L21.4058 2.81899ZM20.1601 2.16012C19.6822 2.08809 19.194 2.18062 18.7756 2.42253L20.2771 5.01969C20.1067 5.11826 19.9077 5.15597 19.713 5.12662L20.1601 2.16012ZM18.2273 4.47113L18.5431 5.01801L21.1411 3.51797L20.8254 2.9711L18.2273 4.47113ZM14.0323 2.41727H14.6638V-0.582726H14.0323V2.41727ZM16.1638 0.915704C16.1633 0.433021 15.999 -0.035203 15.6978 -0.412348L13.3538 1.45998C13.231 1.3063 13.164 1.11552 13.1638 0.918844L16.1638 0.915704ZM15.6978 -0.412348C15.3965 -0.78949 14.9762 -1.05322 14.5055 -1.16037L13.8395 1.76477C13.6478 1.72111 13.4765 1.61365 13.3538 1.45998L15.6978 -0.412348ZM12.71 -0.0311427L12.5699 0.583934L15.4948 1.25061L15.635 0.635538L12.71 -0.0311427ZM10.443 0.582058L10.3028 -0.0342822L7.37755 0.631099L7.51774 1.24744L10.443 0.582058ZM8.51019 -1.16484C8.03804 -1.05836 7.6162 -0.794359 7.31404 -0.41627L9.65758 1.45664C9.53446 1.6107 9.36258 1.71827 9.17019 1.76166L8.51019 -1.16484ZM7.31404 -0.41627C7.01188 -0.0381827 6.84738 0.431489 6.84762 0.915498L9.84762 0.913998C9.84772 1.11122 9.7807 1.30259 9.65758 1.45664L7.31404 -0.41627ZM8.34762 2.41475H8.97912V-0.585252H8.34762V2.41475ZM8.97912 2.41475H8.98038V-0.585252H8.97912V2.41475ZM2.68197 9.27373C3.08955 7.94964 3.79018 6.73439 4.73184 5.71823L2.53139 3.67911C1.28343 5.02581 0.354887 6.63636 -0.185264 8.39115L2.68197 9.27373ZM4.65178 3.599L3.726 2.74016L1.68569 4.93951L2.61146 5.79834L4.65178 3.599ZM1.60583 2.82005C0.228875 4.30533 -0.796108 6.0807 -1.39259 8.01699L1.47446 8.90019C1.93806 7.39526 2.73478 6.01497 3.80586 4.85962L1.60583 2.82005ZM-0.40272 9.89148L0.804699 10.2653L1.69201 7.39955L0.484591 7.0257L-0.40272 9.89148ZM3.50729 16.6178C3.16181 16.0193 2.88433 15.3842 2.68002 14.7241L-0.185838 15.6111C0.0845975 16.4848 0.451881 17.3256 0.909166 18.1177L3.50729 16.6178ZM0.803436 13.7347L-0.403983 14.1086L0.483328 16.9743L1.69075 16.6005L0.803436 13.7347ZM-1.39284 15.9863C-1.09364 16.9497 -0.687785 17.8767 -0.182809 18.7501L2.41429 17.2484C2.02113 16.5684 1.70513 15.8467 1.47218 15.0966L-1.39284 15.9863ZM4.734 18.2815C4.26405 17.7735 3.85207 17.2154 3.50753 16.6182L0.908929 18.1173C1.36641 18.9103 1.9118 19.6485 2.53176 20.3187L4.734 18.2815ZM-0.18376 18.7484C0.319979 19.6222 0.919807 20.4369 1.60455 21.1773L3.80714 19.1405C3.27418 18.5642 2.80732 17.9301 2.41524 17.25L-0.18376 18.7484ZM3.72526 21.2593L4.65229 20.4005L2.61347 18.1997L1.68644 19.0586L3.72526 21.2593ZM13.5592 21.0076C12.2084 21.3152 10.8056 21.3144 9.45509 21.0055L8.78606 23.9299C10.5758 24.3394 12.4349 24.3404 14.2251 23.9328L13.5592 21.0076ZM7.65808 22.1343L7.3777 23.3645L10.3027 24.0312L10.5831 22.801L7.65808 22.1343ZM8.50552 25.16C10.4797 25.6119 12.5303 25.6133 14.5051 25.1643L13.8399 22.239C12.3044 22.5881 10.7099 22.587 9.17486 22.2356L8.50552 25.16ZM15.6351 23.3686L15.3547 22.1372L12.4296 22.8032L12.71 24.0346L15.6351 23.3686ZM20.3308 14.7263C19.9232 16.0504 19.2225 17.2656 18.2809 18.2818L20.4813 20.3209C21.7293 18.9742 22.6578 17.3637 23.198 15.6089L20.3308 14.7263ZM18.361 20.401L19.2867 21.2599L21.327 19.0605L20.4013 18.2017L18.361 20.401ZM21.4069 21.18C22.7841 19.6944 23.8089 17.9177 24.4053 15.9818L21.5383 15.0985C21.0745 16.6038 20.2777 17.9853 19.2068 19.1404L21.4069 21.18ZM23.4141 14.1069L22.2067 13.7343L21.3221 16.6009L22.5295 16.9735L23.4141 14.1069ZM19.5044 7.38049C19.8582 7.99516 20.1335 8.63112 20.3345 9.27779L23.1993 8.38708C22.933 7.53079 22.5693 6.69158 22.1046 5.88412L19.5044 7.38049ZM22.211 10.2652L23.4171 9.89135L22.529 7.02583L21.3228 7.39968L22.211 10.2652ZM24.4056 8.01391C24.1065 7.05031 23.7006 6.12318 23.1954 5.2498L20.5985 6.75183C20.9917 7.43163 21.3077 8.15326 21.5405 8.90328L24.4056 8.01391ZM18.2794 5.71926C18.7493 6.2265 19.1609 6.78408 19.5047 7.381L22.1043 5.88362C21.647 5.0897 21.1012 4.35089 20.4803 3.6806L18.2794 5.71926ZM23.1965 5.25167C22.6928 4.37786 22.0929 3.56312 21.4081 2.82264L19.2056 4.85955C19.7386 5.43583 20.2054 6.0699 20.5975 6.74995L23.1965 5.25167ZM19.2875 2.74073L18.3604 3.59957L20.3993 5.8003L21.3263 4.94146L19.2875 2.74073ZM9.45355 2.9924C10.8044 2.68487 12.2071 2.68561 13.5576 2.99457L14.2267 0.0701273C12.4369 -0.339333 10.5778 -0.340317 8.7876 0.0672482L9.45355 2.9924ZM15.3546 1.86569L15.635 0.635538L12.71 -0.0311427L12.4297 1.19901L15.3546 1.86569ZM14.5072 -1.15998C12.533 -1.6119 10.4824 -1.61335 8.50756 -1.16425L9.17282 1.76106C10.7083 1.41186 12.3028 1.413 13.8378 1.76438L14.5072 -1.15998ZM7.37762 0.631424L7.65801 1.86284L10.5831 1.19681L10.3028 -0.0346066L7.37762 0.631424ZM11.1119 3.25002V0.913485H8.11188V3.25002H11.1119ZM9.61188 -0.586515H8.34889V2.41349H9.61188V-0.586515ZM6.84889 0.913485V3.25002H9.84889V0.913485H6.84889ZM6.25695 3.59022L4.23491 2.42322L2.73532 5.02153L4.75736 6.18854L6.25695 3.59022ZM2.18646 2.97171L1.55496 4.0642L4.15227 5.56553L4.78376 4.47304L2.18646 2.97171ZM2.10286 6.11347L4.12365 7.28173L5.62516 4.68453L3.60437 3.51626L2.10286 6.11347ZM6.17278 6.73427L6.80554 5.64052L4.20878 4.13824L3.57602 5.23199L6.17278 6.73427ZM1.60024 12.34L-0.423072 13.507L1.07581 16.1057L3.09913 14.9387L1.60024 12.34ZM-0.972008 15.5575L-0.339249 16.6513L2.25751 15.149L1.62475 14.0552L-0.972008 15.5575ZM1.70928 17.1991L3.73006 16.0321L2.22977 13.4342L0.208983 14.6012L1.70928 17.1991ZM4.27959 13.9842L3.64936 12.8905L1.05 14.3883L1.68024 15.482L4.27959 13.9842ZM3.73071 7.96507L1.70993 6.79933L0.210856 9.39795L2.23164 10.5637L3.73071 7.96507ZM-0.338636 7.34862L-0.970131 8.44237L1.62793 9.94241L2.25942 8.84866L-0.338636 7.34862ZM-0.420639 10.4917L1.60015 11.6574L3.09922 9.05882L1.07843 7.89308L-0.420639 10.4917ZM3.64871 11.1081L4.28021 10.0144L1.68215 8.51436L1.05065 9.60811L3.64871 11.1081ZM11.1119 23.0815V20.7488H8.11188V23.0815H11.1119ZM9.61188 19.2488H8.34889V22.2488H9.61188V19.2488ZM6.84889 20.7488V23.0815H9.84889V20.7488H6.84889ZM8.34889 24.5815H9.61188V21.5815H8.34889V24.5815ZM4.12587 16.7152L2.10382 17.8822L3.60341 20.4805L5.62546 19.3135L4.12587 16.7152ZM1.55459 19.9314L2.18608 21.0252L4.78414 19.5251L4.15264 18.4314L1.55459 19.9314ZM4.23526 21.5741L6.25604 20.4071L4.75575 17.8092L2.73496 18.9762L4.23526 21.5741ZM6.80557 18.3592L6.17534 17.2655L3.57599 18.7633L4.20622 19.857L6.80557 18.3592ZM20.9095 17.8838L18.8875 16.7156L17.3867 19.3132L19.4087 20.4815L20.9095 17.8838ZM16.8377 17.265L16.2062 18.36L18.805 19.8588L19.4365 18.7637L16.8377 17.265ZM16.7554 20.4083L18.7762 21.5753L20.2765 18.9774L18.2557 17.8104L16.7554 20.4083ZM20.8247 21.0275L21.4575 19.9338L18.8607 18.4315L18.228 19.5253L20.8247 21.0275ZM16.1638 23.0853V20.7488H13.1638V23.0853H16.1638ZM11.9009 20.7488V23.0853H14.9009V20.7488H11.9009ZM13.4009 24.5853H14.6638V21.5853H13.4009V24.5853ZM21.3038 6.79822L19.2818 7.96522L20.7813 10.5635L22.8034 9.39653L21.3038 6.79822ZM18.7325 10.0144L19.364 11.1081L21.9621 9.60811L21.3306 8.51436L18.7325 10.0144ZM21.4132 11.6571L23.434 10.4901L21.9337 7.89217L19.9129 9.05917L21.4132 11.6571ZM23.9835 8.44224L23.3533 7.34849L20.7539 8.84627L21.3842 9.94002L23.9835 8.44224ZM23.4312 13.5053L21.4117 12.3421L19.9144 14.9417L21.9339 16.1049L23.4312 13.5053ZM19.364 12.8919L18.7325 13.9856L21.3306 15.4857L21.9621 14.3919L19.364 12.8919ZM19.282 16.035L21.3028 17.2007L22.8019 14.6021L20.7811 13.4363L19.282 16.035ZM23.3514 16.6514L23.9829 15.5577L21.3848 14.0576L20.7533 15.1514L23.3514 16.6514ZM24.0256 14.1371L24.0243 14.1346L21.3408 15.4757L21.3421 15.4782L24.0256 14.1371ZM16.1638 3.25002V0.917274H13.1638V3.25002H16.1638ZM14.6638 -0.582726H13.4009V2.41727H14.6638V-0.582726ZM11.9009 0.917274V3.25002H14.9009V0.917274H11.9009ZM18.7772 2.42357L16.7552 3.59184L18.256 6.18945L20.278 5.02118L18.7772 2.42357ZM18.8875 7.2832L20.9095 6.11493L19.4087 3.51732L17.3867 4.68559L18.8875 7.2832ZM21.4581 4.06611L20.8266 2.97236L18.2286 4.47239L18.8601 5.56614L21.4581 4.06611ZM11.9009 3.25002C11.9009 6.83482 15.7816 9.07554 18.8868 7.28358L17.3873 4.68521C16.2817 5.32324 14.9009 4.52521 14.9009 3.25002H11.9009ZM16.7556 3.5916C16.6956 3.62624 16.6275 3.64447 16.5583 3.64446L16.5578 6.64446C17.1538 6.64455 17.7394 6.4877 18.2556 6.18968L16.7556 3.5916ZM16.5583 3.64446C16.489 3.64445 16.421 3.6262 16.361 3.59154L14.8601 6.18914C15.3762 6.48732 15.9617 6.64436 16.5578 6.64446L16.5583 3.64446ZM16.361 3.59154C16.301 3.55689 16.2512 3.50705 16.2166 3.44705L13.6178 4.9458C13.9156 5.46213 14.3441 5.89095 14.8601 6.18914L16.361 3.59154ZM16.2166 3.44705C16.1815 3.38616 16.1638 3.31922 16.1638 3.25098L13.1638 3.24906C13.1635 3.84612 13.3205 4.43036 13.6178 4.9458L16.2166 3.44705ZM19.2818 7.96646C16.1761 9.75874 16.1761 14.2413 19.2818 16.0336L20.7813 13.4352C19.6762 12.7975 19.6762 11.2025 20.7813 10.5648L19.2818 7.96646ZM21.3306 15.4844L21.9621 14.3907L19.364 12.8906L18.7325 13.9844L21.3306 15.4844ZM21.4131 12.3416C21.3532 12.307 21.3034 12.2572 21.2687 12.1973L18.6706 13.6972C18.9685 14.2132 19.397 14.6417 19.913 14.9396L21.4131 12.3416ZM21.2687 12.1973C21.2341 12.1373 21.2159 12.0693 21.2159 12H18.2159C18.2159 12.5958 18.3727 13.1812 18.6706 13.6972L21.2687 12.1973ZM21.2159 12C21.2159 11.9308 21.2341 11.8628 21.2687 11.8028L18.6706 10.3028C18.3727 10.8189 18.2159 11.4042 18.2159 12H21.2159ZM21.2687 11.8028C21.3034 11.7428 21.3532 11.693 21.4131 11.6584L19.913 9.06039C19.397 9.35834 18.9685 9.78685 18.6706 10.3028L21.2687 11.8028ZM21.9621 9.60938L21.3306 8.51563L18.7325 10.0157L19.364 11.1094L21.9621 9.60938ZM18.8868 16.7165C15.7829 14.9253 11.9009 17.1612 11.9009 20.7488H14.9009C14.9009 19.4738 16.2804 18.676 17.3873 19.3148L18.8868 16.7165ZM16.1638 20.7488C16.1638 20.6806 16.1816 20.6137 16.2167 20.5528L13.6186 19.0528C13.3212 19.5679 13.1639 20.1518 13.1638 20.7487L16.1638 20.7488ZM16.2167 20.5528C16.2513 20.4928 16.3011 20.443 16.3611 20.4084L14.8611 17.8103C14.3451 18.1083 13.9166 18.5368 13.6186 19.0528L16.2167 20.5528ZM16.3611 20.4084C16.4211 20.3738 16.4891 20.3556 16.5583 20.3556L16.5583 17.3556C15.9625 17.3556 15.3771 17.5124 14.8611 17.8103L16.3611 20.4084ZM16.5583 20.3556C16.6276 20.3556 16.6956 20.3738 16.7556 20.4084L18.2556 17.8104C17.7395 17.5124 17.1542 17.3556 16.5583 17.3556L16.5583 20.3556ZM18.8046 19.8594L19.4361 18.7657L16.838 17.2656L16.2065 18.3594L18.8046 19.8594ZM11.1119 20.7488C11.1119 17.1629 7.23023 14.925 4.12592 16.7165L5.6254 19.3148C6.7319 18.6763 8.11188 19.4746 8.11188 20.7488H11.1119ZM3.57664 18.7657L4.20813 19.8594L6.80619 18.3594L6.17469 17.2656L3.57664 18.7657ZM6.25716 20.4084C6.31715 20.3738 6.3852 20.3556 6.45446 20.3556L6.45495 17.3556C5.8589 17.3555 5.27334 17.5123 4.75716 17.8104L6.25716 20.4084ZM6.45446 20.3556C6.52373 20.3556 6.59178 20.3738 6.65175 20.4085L8.15259 17.8109C7.6365 17.5127 7.05099 17.3557 6.45495 17.3556L6.45446 20.3556ZM6.65175 20.4085C6.71173 20.4431 6.76153 20.493 6.79613 20.553L9.39493 19.0542C9.09716 18.5379 8.66868 18.1091 8.15259 17.8109L6.65175 20.4085ZM6.79613 20.553C6.83074 20.613 6.84893 20.681 6.84889 20.7503L9.84889 20.7522C9.84927 20.1562 9.6927 19.5706 9.39493 19.0542L6.79613 20.553ZM8.34889 22.2513H9.61188V19.2513H8.34889V22.2513ZM11.1119 20.7513V20.7488H8.11188V20.7513H11.1119ZM3.73092 16.0336C6.83667 14.2413 6.83667 9.75874 3.73092 7.96646L2.23144 10.5648C3.3365 11.2025 3.3365 12.7975 2.23144 13.4352L3.73092 16.0336ZM1.68215 8.51563L1.05065 9.60938L3.64871 11.1094L4.28021 10.0157L1.68215 8.51563ZM1.60002 11.6586C1.86169 11.8096 1.86375 12.1877 1.59905 12.3407L3.10032 14.9381C5.3616 13.631 5.36365 10.3667 3.09934 9.06016L1.60002 11.6586ZM1.05028 14.3887L1.68177 15.4838L4.28058 13.985L3.64909 12.89L1.05028 14.3887ZM6.84889 3.24898C6.84884 3.3182 6.83058 3.3862 6.79593 3.44613L9.39323 4.94748C9.69133 4.43178 9.84848 3.84671 9.84889 3.25106L6.84889 3.24898ZM6.79593 3.44613C6.76129 3.50606 6.71149 3.55582 6.65153 3.59041L8.15063 6.18901C8.66659 5.89135 9.09514 5.46317 9.39323 4.94748L6.79593 3.44613ZM6.65153 3.59041C6.59157 3.625 6.52356 3.64321 6.45433 3.64319L6.45381 6.64319C7.04947 6.6433 7.63467 6.48666 8.15063 6.18901L6.65153 3.59041ZM6.45433 3.64319C6.38511 3.64318 6.31711 3.62495 6.25716 3.59034L4.75716 6.18842C5.27301 6.48625 5.85816 6.64309 6.45381 6.64319L6.45433 3.64319ZM4.20776 4.14001L3.57626 5.23503L6.17507 6.73376L6.80656 5.63875L4.20776 4.14001ZM4.12592 7.28358C7.23068 9.07529 11.1119 6.83659 11.1119 3.25002H8.11188C8.11188 4.52596 6.73146 5.32349 5.6254 4.68521L4.12592 7.28358Z" fill="#EB982F" mask="url(#path-2-inside-1_1_249)"/>
<path d="M14.0323 2.50002H13.4009V4.00002H14.0323V2.50002ZM19.6978 13.8125L19.382 14.3594L20.6811 15.1094L20.9968 14.5625L19.6978 13.8125ZM17.1718 18.1875L16.8561 18.7344L18.1551 19.4844L18.4708 18.9375L17.1718 18.1875ZM2.01592 14.5625L2.33166 15.1094L3.63069 14.3594L3.31494 13.8125L2.01592 14.5625ZM4.5419 5.06251L4.22615 5.60939L5.52518 6.3594L5.84093 5.81253L4.5419 5.06251ZM1.49107 18.6486L2.58356 18.0171L1.83289 16.7184L0.740407 17.3499L1.49107 18.6486ZM21.5217 5.35149L20.4292 5.98298L21.1798 7.28163L22.2723 6.65014L21.5217 5.35149ZM8.34889 4.00002H9.61188V2.50002H8.34889V4.00002ZM14.6638 19.9988H13.4009V21.4988H14.6638V19.9988ZM13.4009 4.00002H14.6638V2.50002H13.4009V4.00002ZM16.8561 5.26565L17.4876 6.3594L18.7866 5.60939L18.1551 4.51563L16.8561 5.26565ZM3.16936 4.27051L2.14834 5.36938L3.52866 6.65191L4.46914 5.01923L3.16936 4.27051ZM0.644645 8.64551L1.94292 9.39683L2.885 7.76892L1.0883 7.21263L0.644645 8.64551ZM0.0409355 8.45859L-1.39259 8.01699L-1.39283 8.01777L0.0409355 8.45859ZM0.328898 9.19113L-0.420865 10.4903L0.876756 11.2392L1.62717 9.94244L0.328898 9.19113ZM0.642119 15.3533L1.08578 16.7861L2.88063 16.2304L1.94115 14.6032L0.642119 15.3533ZM0.0384097 15.5402L-1.39457 15.9836L-0.951107 17.4168L0.482068 16.9731L0.0384097 15.5402ZM3.1681 19.7283L4.46713 18.9782L3.52739 17.3506L2.14869 18.6279L3.1681 19.7283ZM2.70458 20.1577L1.68517 19.0573L0.584639 20.0769L1.60438 21.1773L2.70458 20.1577ZM3.48385 20.2751L4.23464 21.5737L5.53244 20.8234L4.78288 19.5251L3.48385 20.2751ZM8.97786 23.0815L10.4411 23.4113L10.8536 21.5815H8.97786V23.0815ZM8.34636 23.0815V21.5815H6.84711L6.84636 23.0807L8.34636 23.0815ZM8.83893 23.6978L8.50893 25.1611L9.97234 25.4911L10.3022 24.0277L8.83893 23.6978ZM14.0311 23.084V21.584H12.1516L12.5684 23.4167L14.0311 23.084ZM14.1713 23.7004L12.7086 24.0331L13.0414 25.496L14.5043 25.1629L14.1713 23.7004ZM14.6626 23.084L16.1626 23.0826L16.1611 21.584H14.6626V23.084ZM19.8421 19.7295L20.8615 18.6292L19.4828 17.3519L18.5431 18.9795L19.8421 19.7295ZM20.3056 20.1589L21.4058 21.1785L22.4256 20.0781L21.325 19.0586L20.3056 20.1589ZM22.3656 15.352L21.0673 14.6007L20.1252 16.2286L21.9219 16.7849L22.3656 15.352ZM22.9693 15.5389L22.5256 16.9718L23.9613 17.4163L24.403 15.9797L22.9693 15.5389ZM22.6813 14.8064L23.4311 13.5072L22.1334 12.7583L21.383 14.0551L22.6813 14.8064ZM22.3681 8.64425L21.9244 7.21136L20.1296 7.7671L21.0691 9.39427L22.3681 8.64425ZM22.9718 8.45733L24.4048 8.01396L23.9613 6.58069L22.5281 7.02444L22.9718 8.45733ZM19.8421 4.26799L18.5431 5.01801L19.4828 6.64563L20.8615 5.36835L19.8421 4.26799ZM20.3056 3.83857L21.325 4.93893L22.4256 3.91937L21.4058 2.81899L20.3056 3.83857ZM19.5264 3.72111L18.7756 2.42253L17.4778 3.17288L18.2273 4.47113L19.5264 3.72111ZM14.0323 0.917274L12.5699 0.583934L12.152 2.41727H14.0323V0.917274ZM14.6638 0.917274H16.1638V0.915704L14.6638 0.917274ZM8.98038 0.914748V2.41475H10.8599L10.443 0.582058L8.98038 0.914748ZM8.34762 0.914748L6.84762 0.915498L6.84837 2.41475H8.34762V0.914748ZM20.0316 14.7344L19.2818 16.0336L20.5807 16.7832L21.3306 15.4844L20.0316 14.7344ZM2.98118 14.7344L1.68177 15.4838L2.43136 16.7835L3.73092 16.0336L2.98118 14.7344ZM4.87566 5.98439L3.57626 5.23503L2.82711 6.53406L4.12592 7.28358L4.87566 5.98439ZM1.24835 8.83244L0.804699 10.2653L2.23995 10.7097L2.68197 9.27373L1.24835 8.83244ZM3.63162 4.69867L4.73184 5.71823L5.75085 4.6186L4.65178 3.599L3.63162 4.69867ZM2.20823 17.3677L3.50753 16.6182L3.50729 16.6178L2.20823 17.3677ZM1.24709 15.1676L2.68002 14.7241L2.23646 13.291L0.803436 13.7347L1.24709 15.1676ZM0.0396726 15.5414L-0.403983 14.1086L-1.83809 14.5526L-1.39284 15.9863L0.0396726 15.5414ZM1.11574 17.9992L2.41524 17.25L2.41429 17.2484L1.11574 17.9992ZM3.63288 19.3001L4.65229 20.4005L5.75185 19.3818L4.734 18.2815L3.63288 19.3001ZM2.70585 20.1589L1.60455 21.1773L2.62389 22.2796L3.72526 21.2593L2.70585 20.1589ZM13.8922 22.4702L15.3547 22.1372L15.0217 20.6747L13.5592 21.0076L13.8922 22.4702ZM9.12057 22.4677L9.45509 21.0055L7.99169 20.6707L7.65808 22.1343L9.12057 22.4677ZM8.84019 23.6978L7.3777 23.3645L7.04466 24.8257L8.50552 25.16L8.84019 23.6978ZM14.1725 23.7016L14.5051 25.1643L15.9682 24.8316L15.6351 23.3686L14.1725 23.7016ZM21.7644 15.1676L22.2067 13.7343L20.7724 13.2917L20.3308 14.7263L21.7644 15.1676ZM19.3811 19.3014L18.2809 18.2818L17.2619 19.3814L18.361 20.401L19.3811 19.3014ZM20.3069 20.1602L19.2867 21.2599L20.3868 22.2804L21.4069 21.18L20.3069 20.1602ZM22.9718 15.5402L24.4053 15.9818L24.8467 14.549L23.4141 14.1069L22.9718 15.5402ZM20.8045 6.63231L22.1046 5.88412L22.1043 5.88362L20.8045 6.63231ZM21.7669 8.83244L20.3345 9.27779L20.7795 10.7089L22.211 10.2652L21.7669 8.83244ZM22.9731 8.45859L23.4171 9.89135L24.8505 9.44708L24.4056 8.01391L22.9731 8.45859ZM21.897 6.00081L20.5974 6.74995L20.5985 6.75183L21.897 6.00081ZM19.3798 4.69993L18.3604 3.59957L17.2602 4.6189L18.2794 5.71926L19.3798 4.69993ZM20.3069 3.8411L21.4081 2.82264L20.3888 1.72044L19.2875 2.74073L20.3069 3.8411ZM9.12057 1.52982L7.65801 1.86284L7.99101 3.32536L9.45355 2.9924L9.12057 1.52982ZM13.8922 1.53235L13.5576 2.99457L15.021 3.32936L15.3546 1.86569L13.8922 1.53235ZM9.61188 0.913485H11.1119V-0.586515H9.61188V0.913485ZM8.34889 0.913485V-0.586515H6.84889V0.913485H8.34889ZM8.34889 3.25002L9.84889 3.25106V3.25002H8.34889ZM5.50716 4.88938L6.25716 3.59034L6.25695 3.59022L5.50716 4.88938ZM2.85362 4.81486L1.55496 4.0642L0.804347 5.36276L2.10286 6.11347L2.85362 4.81486ZM4.8744 5.98313L4.12365 7.28173L5.42186 8.03226L6.17278 6.73427L4.8744 5.98313ZM0.95913 15.9001L-0.339249 16.6513L0.411316 17.9487L1.70928 17.1991L0.95913 15.9001ZM2.97991 14.7331L3.73006 16.0321L5.02776 15.2827L4.27959 13.9842L2.97991 14.7331ZM2.98118 9.26438L4.28021 10.0144L5.0305 8.71489L3.73071 7.96507L2.98118 9.26438ZM0.960393 8.09864L1.70993 6.79933L0.411104 6.05007L-0.338636 7.34862L0.960393 8.09864ZM0.328898 9.19239L-0.970131 8.44237L-1.72042 9.74188L-0.420639 10.4917L0.328898 9.19239ZM2.34968 10.3581L1.60015 11.6574L2.89897 12.4067L3.64871 11.1081L2.34968 10.3581ZM9.61188 23.0815V24.5815H11.1119V23.0815H9.61188ZM8.34889 20.7488V19.2488H6.84889V20.7488H8.34889ZM8.34889 23.0815H6.84889V24.5815H8.34889V23.0815ZM4.87566 18.0144L6.17534 17.2655L5.42593 15.9649L4.12587 16.7152L4.87566 18.0144ZM2.85362 19.1814L2.10382 17.8822L0.804443 18.6322L1.55459 19.9314L2.85362 19.1814ZM3.48511 20.2751L2.18608 21.0252L2.93617 22.3243L4.23526 21.5741L3.48511 20.2751ZM5.5059 19.1081L6.25604 20.4071L7.55374 19.6577L6.80557 18.3592L5.5059 19.1081ZM20.1591 19.1826L21.4575 19.9338L22.2091 18.6347L20.9095 17.8838L20.1591 19.1826ZM18.1371 18.0144L18.8875 16.7156L17.5876 15.9646L16.8377 17.265L18.1371 18.0144ZM14.6638 23.0853V24.5853H16.1638V23.0853H14.6638ZM14.6638 20.7488L13.1638 20.7487V20.7488H14.6638ZM13.4009 23.0853H11.9009V24.5853H13.4009V23.0853ZM22.0536 8.09738L23.3533 7.34849L22.6039 6.0479L21.3038 6.79822L22.0536 8.09738ZM20.0316 9.26438L19.2818 7.96522L17.9824 8.71515L18.7325 10.0144L20.0316 9.26438ZM20.663 10.3581L19.364 11.1081L20.1141 12.4073L21.4132 11.6571L20.663 10.3581ZM22.6826 14.8051L24.0243 14.1346L23.8225 13.7307L23.4312 13.5053L22.6826 14.8051ZM20.663 13.6419L21.4117 12.3421L20.1133 11.5942L19.364 12.8919L20.663 13.6419ZM20.0316 14.7357L18.7325 13.9856L17.9822 15.2851L19.282 16.035L20.0316 14.7357ZM22.0523 15.9014L21.3028 17.2007L22.6016 17.95L23.3514 16.6514L22.0523 15.9014ZM22.6838 14.8076L23.9829 15.5577L24.3863 14.8589L24.0256 14.1371L22.6838 14.8076ZM14.6638 3.25002L16.1638 3.25098V3.25002H14.6638ZM13.4009 0.917274V-0.582726H11.9009V0.917274H13.4009ZM19.5276 3.72238L20.8266 2.97236L20.0764 1.67295L18.7772 2.42357L19.5276 3.72238ZM17.5056 4.89064L18.2556 6.18968L18.256 6.18945L17.5056 4.89064ZM18.1371 5.98439L18.8868 7.28358L18.8875 7.2832L18.1371 5.98439ZM20.1591 4.81613L20.9095 6.11493L22.2079 5.36475L21.4581 4.06611L20.1591 4.81613ZM20.0316 9.26564L21.3306 8.51563L20.5807 7.21687L19.2818 7.96646L20.0316 9.26564ZM20.663 13.6406L21.9621 14.3907L22.7121 13.0917L21.4131 12.3416L20.663 13.6406ZM20.663 10.3594L21.4131 11.6584L22.7121 10.9084L21.9621 9.60938L20.663 10.3594ZM18.1371 18.0156L19.4361 18.7657L20.1863 17.4664L18.8868 16.7165L18.1371 18.0156ZM4.87566 18.0156L4.12592 16.7165L2.82646 17.4664L3.57664 18.7657L4.87566 18.0156ZM5.50716 19.1094L4.20813 19.8594L4.95814 21.1584L6.25716 20.4084L5.50716 19.1094ZM8.34889 20.7513L6.84889 20.7503L6.84793 22.2513H8.34889V20.7513ZM9.61188 20.7513V22.2513H11.1119V20.7513H9.61188ZM2.98118 9.26564L3.73092 7.96646L2.43201 7.21687L1.68215 8.51563L2.98118 9.26564ZM2.34968 10.3594L1.05065 9.60938L0.300431 10.9088L1.60002 11.6586L2.34968 10.3594ZM4.46914 5.01923L4.78489 4.4711L2.18533 2.97366L1.86959 3.5218L4.46914 5.01923ZM4.2359 2.4238C3.81748 2.18188 3.32927 2.08935 2.85134 2.16139L3.29848 5.12788C3.10374 5.15723 2.90481 5.11953 2.73432 5.02096L4.2359 2.4238ZM2.85134 2.16139C2.37341 2.23342 1.93416 2.46575 1.60564 2.82025L3.80605 4.85941C3.67219 5.00386 3.49321 5.09853 3.29848 5.12788L2.85134 2.16139ZM1.68482 4.9387L2.14834 5.36938L4.19038 3.17164L3.72687 2.74096L1.68482 4.9387ZM1.0883 7.21263L0.484591 7.0257L-0.40272 9.89148L0.20099 10.0784L1.0883 7.21263ZM-1.39283 8.01777C-1.53466 8.47906 -1.51574 8.97484 -1.33918 9.42399L1.45284 8.32644C1.52478 8.50945 1.53249 8.71146 1.4747 8.89942L-1.39283 8.01777ZM-1.33918 9.42399C-1.16262 9.87314 -0.838856 10.2491 -0.420865 10.4903L1.07866 7.89195C1.24897 7.99024 1.3809 8.14342 1.45284 8.32644L-1.33918 9.42399ZM1.62717 9.94244L1.94292 9.39683L-0.653632 7.8942L-0.969379 8.43981L1.62717 9.94244ZM1.94115 14.6032L1.6254 14.0564L-0.972657 15.5564L-0.656909 16.1033L1.94115 14.6032ZM-0.422605 13.5068C-0.8415 13.7482 -1.16588 14.1248 -1.34249 14.5749L1.45017 15.6708C1.3782 15.8542 1.24603 16.0076 1.07535 16.106L-0.422605 13.5068ZM-1.34249 14.5749C-1.51911 15.0249 -1.53747 15.5217 -1.39457 15.9836L1.47139 15.0968C1.52962 15.285 1.52213 15.4874 1.45017 15.6708L-1.34249 14.5749ZM0.482068 16.9731L1.08578 16.7861L0.198461 13.9204L-0.405248 14.1073L0.482068 16.9731ZM2.14869 18.6279L1.68517 19.0573L3.72399 21.258L4.18751 20.8286L2.14869 18.6279ZM1.60438 21.1773C1.93289 21.5317 2.37213 21.7641 2.85008 21.8361L3.29721 18.8696C3.49197 18.899 3.67094 18.9937 3.80479 19.1381L1.60438 21.1773ZM2.85008 21.8361C3.32801 21.9082 3.81622 21.8156 4.23464 21.5737L2.73305 18.9766C2.90354 18.878 3.10247 18.8403 3.29721 18.8696L2.85008 21.8361ZM4.78288 19.5251L4.46713 18.9782L1.86907 20.4783L2.18482 21.0251L4.78288 19.5251ZM8.97786 21.5815H8.34636V24.5815H8.97786V21.5815ZM6.84636 23.0807C6.84612 23.5647 7.01061 24.0344 7.31277 24.4125L9.65632 22.5396C9.77944 22.6937 9.84646 22.885 9.84636 23.0822L6.84636 23.0807ZM7.31277 24.4125C7.61494 24.7906 8.03679 25.0546 8.50893 25.1611L9.16893 22.2346C9.3613 22.278 9.53319 22.3855 9.65632 22.5396L7.31277 24.4125ZM10.3022 24.0277L10.4411 23.4113L7.51457 22.7517L7.37564 23.368L10.3022 24.0277ZM12.5684 23.4167L12.7086 24.0331L15.6339 23.3677L15.4937 22.7513L12.5684 23.4167ZM14.5043 25.1629C14.9756 25.0556 15.3965 24.7913 15.6978 24.4132L13.3519 22.5433C13.4747 22.3892 13.6462 22.2815 13.8383 22.2378L14.5043 25.1629ZM15.6978 24.4132C15.9992 24.0352 16.163 23.566 16.1626 23.0826L13.1626 23.0855C13.1624 22.8885 13.2292 22.6973 13.3519 22.5433L15.6978 24.4132ZM14.6626 21.584H14.0323V24.584H14.6626V21.584ZM14.0323 21.584H14.0311V24.584H14.0323V21.584ZM18.5431 18.9795L18.2273 19.5264L20.8254 21.0264L21.1411 20.4795L18.5431 18.9795ZM18.7756 21.575C19.194 21.8169 19.6822 21.9094 20.1601 21.8374L19.713 18.8709C19.9077 18.8415 20.1067 18.8792 20.2771 18.9778L18.7756 21.575ZM20.1601 21.8374C20.6381 21.7653 21.0773 21.533 21.4058 21.1785L19.2054 19.1394C19.3393 18.9949 19.5182 18.9003 19.713 18.8709L20.1601 21.8374ZM21.325 19.0586L20.8615 18.6292L18.8227 20.8299L19.2862 21.2593L21.325 19.0586ZM21.9219 16.7849L22.5256 16.9718L23.4129 14.106L22.8092 13.9191L21.9219 16.7849ZM24.403 15.9797C24.5449 15.5184 24.5259 15.0227 24.3494 14.5735L21.5574 15.6711C21.4854 15.4881 21.4777 15.2861 21.5355 15.0981L24.403 15.9797ZM24.3494 14.5735C24.1728 14.1244 23.8491 13.7484 23.4311 13.5072L21.9315 16.1056C21.7612 16.0073 21.6293 15.8541 21.5574 15.6711L24.3494 14.5735ZM21.383 14.0551L21.0673 14.6007L23.6638 16.1033L23.9796 15.5577L21.383 14.0551ZM21.0691 9.39427L21.3848 9.94114L23.9829 8.44111L23.6671 7.89424L21.0691 9.39427ZM23.4328 10.4908C23.8517 10.2493 24.1761 9.87269 24.3527 9.42263L21.56 8.32672C21.632 8.14334 21.7642 7.98987 21.9349 7.8915L23.4328 10.4908ZM24.3527 9.42263C24.5293 8.97257 24.5477 8.47583 24.4048 8.01396L21.5388 8.9007C21.4806 8.71251 21.4881 8.5101 21.56 8.32672L24.3527 9.42263ZM22.5281 7.02444L21.9244 7.21136L22.8117 10.0771L23.4154 9.89022L22.5281 7.02444ZM20.8615 5.36835L21.325 4.93893L19.2862 2.73821L18.8227 3.16763L20.8615 5.36835ZM21.4058 2.81899C21.0773 2.4645 20.6381 2.23216 20.1601 2.16012L19.713 5.12662C19.5182 5.09726 19.3393 5.00259 19.2054 4.85815L21.4058 2.81899ZM20.1601 2.16012C19.6822 2.08809 19.194 2.18062 18.7756 2.42253L20.2771 5.01969C20.1067 5.11826 19.9077 5.15597 19.713 5.12662L20.1601 2.16012ZM18.2273 4.47113L18.5431 5.01801L21.1411 3.51797L20.8254 2.9711L18.2273 4.47113ZM14.0323 2.41727H14.6638V-0.582726H14.0323V2.41727ZM16.1638 0.915704C16.1633 0.433021 15.999 -0.035203 15.6978 -0.412348L13.3538 1.45998C13.231 1.3063 13.164 1.11552 13.1638 0.918844L16.1638 0.915704ZM15.6978 -0.412348C15.3965 -0.78949 14.9762 -1.05322 14.5055 -1.16037L13.8395 1.76477C13.6478 1.72111 13.4765 1.61365 13.3538 1.45998L15.6978 -0.412348ZM12.71 -0.0311427L12.5699 0.583934L15.4948 1.25061L15.635 0.635538L12.71 -0.0311427ZM10.443 0.582058L10.3028 -0.0342822L7.37755 0.631099L7.51774 1.24744L10.443 0.582058ZM8.51019 -1.16484C8.03804 -1.05836 7.6162 -0.794359 7.31404 -0.41627L9.65758 1.45664C9.53446 1.6107 9.36258 1.71827 9.17019 1.76166L8.51019 -1.16484ZM7.31404 -0.41627C7.01188 -0.0381827 6.84738 0.431489 6.84762 0.915498L9.84762 0.913998C9.84772 1.11122 9.7807 1.30259 9.65758 1.45664L7.31404 -0.41627ZM8.34762 2.41475H8.97912V-0.585252H8.34762V2.41475ZM8.97912 2.41475H8.98038V-0.585252H8.97912V2.41475ZM2.68197 9.27373C3.08955 7.94964 3.79018 6.73439 4.73184 5.71823L2.53139 3.67911C1.28343 5.02581 0.354887 6.63636 -0.185264 8.39115L2.68197 9.27373ZM4.65178 3.599L3.726 2.74016L1.68569 4.93951L2.61146 5.79834L4.65178 3.599ZM1.60583 2.82005C0.228875 4.30533 -0.796108 6.0807 -1.39259 8.01699L1.47446 8.90019C1.93806 7.39526 2.73478 6.01497 3.80586 4.85962L1.60583 2.82005ZM-0.40272 9.89148L0.804699 10.2653L1.69201 7.39955L0.484591 7.0257L-0.40272 9.89148ZM3.50729 16.6178C3.16181 16.0193 2.88433 15.3842 2.68002 14.7241L-0.185838 15.6111C0.0845975 16.4848 0.451881 17.3256 0.909166 18.1177L3.50729 16.6178ZM0.803436 13.7347L-0.403983 14.1086L0.483328 16.9743L1.69075 16.6005L0.803436 13.7347ZM-1.39284 15.9863C-1.09364 16.9497 -0.687785 17.8767 -0.182809 18.7501L2.41429 17.2484C2.02113 16.5684 1.70513 15.8467 1.47218 15.0966L-1.39284 15.9863ZM4.734 18.2815C4.26405 17.7735 3.85207 17.2154 3.50753 16.6182L0.908929 18.1173C1.36641 18.9103 1.9118 19.6485 2.53176 20.3187L4.734 18.2815ZM-0.18376 18.7484C0.319979 19.6222 0.919807 20.4369 1.60455 21.1773L3.80714 19.1405C3.27418 18.5642 2.80732 17.9301 2.41524 17.25L-0.18376 18.7484ZM3.72526 21.2593L4.65229 20.4005L2.61347 18.1997L1.68644 19.0586L3.72526 21.2593ZM13.5592 21.0076C12.2084 21.3152 10.8056 21.3144 9.45509 21.0055L8.78606 23.9299C10.5758 24.3394 12.4349 24.3404 14.2251 23.9328L13.5592 21.0076ZM7.65808 22.1343L7.3777 23.3645L10.3027 24.0312L10.5831 22.801L7.65808 22.1343ZM8.50552 25.16C10.4797 25.6119 12.5303 25.6133 14.5051 25.1643L13.8399 22.239C12.3044 22.5881 10.7099 22.587 9.17486 22.2356L8.50552 25.16ZM15.6351 23.3686L15.3547 22.1372L12.4296 22.8032L12.71 24.0346L15.6351 23.3686ZM20.3308 14.7263C19.9232 16.0504 19.2225 17.2656 18.2809 18.2818L20.4813 20.3209C21.7293 18.9742 22.6578 17.3637 23.198 15.6089L20.3308 14.7263ZM18.361 20.401L19.2867 21.2599L21.327 19.0605L20.4013 18.2017L18.361 20.401ZM21.4069 21.18C22.7841 19.6944 23.8089 17.9177 24.4053 15.9818L21.5383 15.0985C21.0745 16.6038 20.2777 17.9853 19.2068 19.1404L21.4069 21.18ZM23.4141 14.1069L22.2067 13.7343L21.3221 16.6009L22.5295 16.9735L23.4141 14.1069ZM19.5044 7.38049C19.8582 7.99516 20.1335 8.63112 20.3345 9.27779L23.1993 8.38708C22.933 7.53079 22.5693 6.69158 22.1046 5.88412L19.5044 7.38049ZM22.211 10.2652L23.4171 9.89135L22.529 7.02583L21.3228 7.39968L22.211 10.2652ZM24.4056 8.01391C24.1065 7.05031 23.7006 6.12318 23.1954 5.2498L20.5985 6.75183C20.9917 7.43163 21.3077 8.15326 21.5405 8.90328L24.4056 8.01391ZM18.2794 5.71926C18.7493 6.2265 19.1609 6.78408 19.5047 7.381L22.1043 5.88362C21.647 5.0897 21.1012 4.35089 20.4803 3.6806L18.2794 5.71926ZM23.1965 5.25167C22.6928 4.37786 22.0929 3.56312 21.4081 2.82264L19.2056 4.85955C19.7386 5.43583 20.2054 6.0699 20.5975 6.74995L23.1965 5.25167ZM19.2875 2.74073L18.3604 3.59957L20.3993 5.8003L21.3263 4.94146L19.2875 2.74073ZM9.45355 2.9924C10.8044 2.68487 12.2071 2.68561 13.5576 2.99457L14.2267 0.0701273C12.4369 -0.339333 10.5778 -0.340317 8.7876 0.0672482L9.45355 2.9924ZM15.3546 1.86569L15.635 0.635538L12.71 -0.0311427L12.4297 1.19901L15.3546 1.86569ZM14.5072 -1.15998C12.533 -1.6119 10.4824 -1.61335 8.50756 -1.16425L9.17282 1.76106C10.7083 1.41186 12.3028 1.413 13.8378 1.76438L14.5072 -1.15998ZM7.37762 0.631424L7.65801 1.86284L10.5831 1.19681L10.3028 -0.0346066L7.37762 0.631424ZM11.1119 3.25002V0.913485H8.11188V3.25002H11.1119ZM9.61188 -0.586515H8.34889V2.41349H9.61188V-0.586515ZM6.84889 0.913485V3.25002H9.84889V0.913485H6.84889ZM6.25695 3.59022L4.23491 2.42322L2.73532 5.02153L4.75736 6.18854L6.25695 3.59022ZM2.18646 2.97171L1.55496 4.0642L4.15227 5.56553L4.78376 4.47304L2.18646 2.97171ZM2.10286 6.11347L4.12365 7.28173L5.62516 4.68453L3.60437 3.51626L2.10286 6.11347ZM6.17278 6.73427L6.80554 5.64052L4.20878 4.13824L3.57602 5.23199L6.17278 6.73427ZM1.60024 12.34L-0.423072 13.507L1.07581 16.1057L3.09913 14.9387L1.60024 12.34ZM-0.972008 15.5575L-0.339249 16.6513L2.25751 15.149L1.62475 14.0552L-0.972008 15.5575ZM1.70928 17.1991L3.73006 16.0321L2.22977 13.4342L0.208983 14.6012L1.70928 17.1991ZM4.27959 13.9842L3.64936 12.8905L1.05 14.3883L1.68024 15.482L4.27959 13.9842ZM3.73071 7.96507L1.70993 6.79933L0.210856 9.39795L2.23164 10.5637L3.73071 7.96507ZM-0.338636 7.34862L-0.970131 8.44237L1.62793 9.94241L2.25942 8.84866L-0.338636 7.34862ZM-0.420639 10.4917L1.60015 11.6574L3.09922 9.05882L1.07843 7.89308L-0.420639 10.4917ZM3.64871 11.1081L4.28021 10.0144L1.68215 8.51436L1.05065 9.60811L3.64871 11.1081ZM11.1119 23.0815V20.7488H8.11188V23.0815H11.1119ZM9.61188 19.2488H8.34889V22.2488H9.61188V19.2488ZM6.84889 20.7488V23.0815H9.84889V20.7488H6.84889ZM8.34889 24.5815H9.61188V21.5815H8.34889V24.5815ZM4.12587 16.7152L2.10382 17.8822L3.60341 20.4805L5.62546 19.3135L4.12587 16.7152ZM1.55459 19.9314L2.18608 21.0252L4.78414 19.5251L4.15264 18.4314L1.55459 19.9314ZM4.23526 21.5741L6.25604 20.4071L4.75575 17.8092L2.73496 18.9762L4.23526 21.5741ZM6.80557 18.3592L6.17534 17.2655L3.57599 18.7633L4.20622 19.857L6.80557 18.3592ZM20.9095 17.8838L18.8875 16.7156L17.3867 19.3132L19.4087 20.4815L20.9095 17.8838ZM16.8377 17.265L16.2062 18.36L18.805 19.8588L19.4365 18.7637L16.8377 17.265ZM16.7554 20.4083L18.7762 21.5753L20.2765 18.9774L18.2557 17.8104L16.7554 20.4083ZM20.8247 21.0275L21.4575 19.9338L18.8607 18.4315L18.228 19.5253L20.8247 21.0275ZM16.1638 23.0853V20.7488H13.1638V23.0853H16.1638ZM11.9009 20.7488V23.0853H14.9009V20.7488H11.9009ZM13.4009 24.5853H14.6638V21.5853H13.4009V24.5853ZM21.3038 6.79822L19.2818 7.96522L20.7813 10.5635L22.8034 9.39653L21.3038 6.79822ZM18.7325 10.0144L19.364 11.1081L21.9621 9.60811L21.3306 8.51436L18.7325 10.0144ZM21.4132 11.6571L23.434 10.4901L21.9337 7.89217L19.9129 9.05917L21.4132 11.6571ZM23.9835 8.44224L23.3533 7.34849L20.7539 8.84627L21.3842 9.94002L23.9835 8.44224ZM23.4312 13.5053L21.4117 12.3421L19.9144 14.9417L21.9339 16.1049L23.4312 13.5053ZM19.364 12.8919L18.7325 13.9856L21.3306 15.4857L21.9621 14.3919L19.364 12.8919ZM19.282 16.035L21.3028 17.2007L22.8019 14.6021L20.7811 13.4363L19.282 16.035ZM23.3514 16.6514L23.9829 15.5577L21.3848 14.0576L20.7533 15.1514L23.3514 16.6514ZM24.0256 14.1371L24.0243 14.1346L21.3408 15.4757L21.3421 15.4782L24.0256 14.1371ZM16.1638 3.25002V0.917274H13.1638V3.25002H16.1638ZM14.6638 -0.582726H13.4009V2.41727H14.6638V-0.582726ZM11.9009 0.917274V3.25002H14.9009V0.917274H11.9009ZM18.7772 2.42357L16.7552 3.59184L18.256 6.18945L20.278 5.02118L18.7772 2.42357ZM18.8875 7.2832L20.9095 6.11493L19.4087 3.51732L17.3867 4.68559L18.8875 7.2832ZM21.4581 4.06611L20.8266 2.97236L18.2286 4.47239L18.8601 5.56614L21.4581 4.06611ZM11.9009 3.25002C11.9009 6.83482 15.7816 9.07554 18.8868 7.28358L17.3873 4.68521C16.2817 5.32324 14.9009 4.52521 14.9009 3.25002H11.9009ZM16.7556 3.5916C16.6956 3.62624 16.6275 3.64447 16.5583 3.64446L16.5578 6.64446C17.1538 6.64455 17.7394 6.4877 18.2556 6.18968L16.7556 3.5916ZM16.5583 3.64446C16.489 3.64445 16.421 3.6262 16.361 3.59154L14.8601 6.18914C15.3762 6.48732 15.9617 6.64436 16.5578 6.64446L16.5583 3.64446ZM16.361 3.59154C16.301 3.55689 16.2512 3.50705 16.2166 3.44705L13.6178 4.9458C13.9156 5.46213 14.3441 5.89095 14.8601 6.18914L16.361 3.59154ZM16.2166 3.44705C16.1815 3.38616 16.1638 3.31922 16.1638 3.25098L13.1638 3.24906C13.1635 3.84612 13.3205 4.43036 13.6178 4.9458L16.2166 3.44705ZM19.2818 7.96646C16.1761 9.75874 16.1761 14.2413 19.2818 16.0336L20.7813 13.4352C19.6762 12.7975 19.6762 11.2025 20.7813 10.5648L19.2818 7.96646ZM21.3306 15.4844L21.9621 14.3907L19.364 12.8906L18.7325 13.9844L21.3306 15.4844ZM21.4131 12.3416C21.3532 12.307 21.3034 12.2572 21.2687 12.1973L18.6706 13.6972C18.9685 14.2132 19.397 14.6417 19.913 14.9396L21.4131 12.3416ZM21.2687 12.1973C21.2341 12.1373 21.2159 12.0693 21.2159 12H18.2159C18.2159 12.5958 18.3727 13.1812 18.6706 13.6972L21.2687 12.1973ZM21.2159 12C21.2159 11.9308 21.2341 11.8628 21.2687 11.8028L18.6706 10.3028C18.3727 10.8189 18.2159 11.4042 18.2159 12H21.2159ZM21.2687 11.8028C21.3034 11.7428 21.3532 11.693 21.4131 11.6584L19.913 9.06039C19.397 9.35834 18.9685 9.78685 18.6706 10.3028L21.2687 11.8028ZM21.9621 9.60938L21.3306 8.51563L18.7325 10.0157L19.364 11.1094L21.9621 9.60938ZM18.8868 16.7165C15.7829 14.9253 11.9009 17.1612 11.9009 20.7488H14.9009C14.9009 19.4738 16.2804 18.676 17.3873 19.3148L18.8868 16.7165ZM16.1638 20.7488C16.1638 20.6806 16.1816 20.6137 16.2167 20.5528L13.6186 19.0528C13.3212 19.5679 13.1639 20.1518 13.1638 20.7487L16.1638 20.7488ZM16.2167 20.5528C16.2513 20.4928 16.3011 20.443 16.3611 20.4084L14.8611 17.8103C14.3451 18.1083 13.9166 18.5368 13.6186 19.0528L16.2167 20.5528ZM16.3611 20.4084C16.4211 20.3738 16.4891 20.3556 16.5583 20.3556L16.5583 17.3556C15.9625 17.3556 15.3771 17.5124 14.8611 17.8103L16.3611 20.4084ZM16.5583 20.3556C16.6276 20.3556 16.6956 20.3738 16.7556 20.4084L18.2556 17.8104C17.7395 17.5124 17.1542 17.3556 16.5583 17.3556L16.5583 20.3556ZM18.8046 19.8594L19.4361 18.7657L16.838 17.2656L16.2065 18.3594L18.8046 19.8594ZM11.1119 20.7488C11.1119 17.1629 7.23023 14.925 4.12592 16.7165L5.6254 19.3148C6.7319 18.6763 8.11188 19.4746 8.11188 20.7488H11.1119ZM3.57664 18.7657L4.20813 19.8594L6.80619 18.3594L6.17469 17.2656L3.57664 18.7657ZM6.25716 20.4084C6.31715 20.3738 6.3852 20.3556 6.45446 20.3556L6.45495 17.3556C5.8589 17.3555 5.27334 17.5123 4.75716 17.8104L6.25716 20.4084ZM6.45446 20.3556C6.52373 20.3556 6.59178 20.3738 6.65175 20.4085L8.15259 17.8109C7.6365 17.5127 7.05099 17.3557 6.45495 17.3556L6.45446 20.3556ZM6.65175 20.4085C6.71173 20.4431 6.76153 20.493 6.79613 20.553L9.39493 19.0542C9.09716 18.5379 8.66868 18.1091 8.15259 17.8109L6.65175 20.4085ZM6.79613 20.553C6.83074 20.613 6.84893 20.681 6.84889 20.7503L9.84889 20.7522C9.84927 20.1562 9.6927 19.5706 9.39493 19.0542L6.79613 20.553ZM8.34889 22.2513H9.61188V19.2513H8.34889V22.2513ZM11.1119 20.7513V20.7488H8.11188V20.7513H11.1119ZM3.73092 16.0336C6.83667 14.2413 6.83667 9.75874 3.73092 7.96646L2.23144 10.5648C3.3365 11.2025 3.3365 12.7975 2.23144 13.4352L3.73092 16.0336ZM1.68215 8.51563L1.05065 9.60938L3.64871 11.1094L4.28021 10.0157L1.68215 8.51563ZM1.60002 11.6586C1.86169 11.8096 1.86375 12.1877 1.59905 12.3407L3.10032 14.9381C5.3616 13.631 5.36365 10.3667 3.09934 9.06016L1.60002 11.6586ZM1.05028 14.3887L1.68177 15.4838L4.28058 13.985L3.64909 12.89L1.05028 14.3887ZM6.84889 3.24898C6.84884 3.3182 6.83058 3.3862 6.79593 3.44613L9.39323 4.94748C9.69133 4.43178 9.84848 3.84671 9.84889 3.25106L6.84889 3.24898ZM6.79593 3.44613C6.76129 3.50606 6.71149 3.55582 6.65153 3.59041L8.15063 6.18901C8.66659 5.89135 9.09514 5.46317 9.39323 4.94748L6.79593 3.44613ZM6.65153 3.59041C6.59157 3.625 6.52356 3.64321 6.45433 3.64319L6.45381 6.64319C7.04947 6.6433 7.63467 6.48666 8.15063 6.18901L6.65153 3.59041ZM6.45433 3.64319C6.38511 3.64318 6.31711 3.62495 6.25716 3.59034L4.75716 6.18842C5.27301 6.48625 5.85816 6.64309 6.45381 6.64319L6.45433 3.64319ZM4.20776 4.14001L3.57626 5.23503L6.17507 6.73376L6.80656 5.63875L4.20776 4.14001ZM4.12592 7.28358C7.23068 9.07529 11.1119 6.83659 11.1119 3.25002H8.11188C8.11188 4.52596 6.73146 5.32349 5.6254 4.68521L4.12592 7.28358Z" fill="url(#paint3_linear_1_249)" fill-opacity="0.9" mask="url(#path-2-inside-1_1_249)"/>
<defs>
<linearGradient id="paint0_linear_1_249" x1="14.6176" y1="12.0003" x2="7.99455" y2="12.0003" gradientUnits="userSpaceOnUse">
<stop stop-color="#E14E83"/>
<stop offset="0.494792" stop-color="#F86F6F" stop-opacity="0.37"/>
</linearGradient>
<linearGradient id="paint1_linear_1_249" x1="14.6176" y1="12.0003" x2="7.99455" y2="12.0003" gradientUnits="userSpaceOnUse">
<stop stop-color="#E14E83"/>
<stop offset="0.494792" stop-color="#F86F6F" stop-opacity="0.37"/>
</linearGradient>
<linearGradient id="paint2_linear_1_249" x1="25.6635" y1="12" x2="-4.47562" y2="12" gradientUnits="userSpaceOnUse">
<stop stop-color="#E14E83"/>
<stop offset="0.494792" stop-color="#F86F6F" stop-opacity="0.37"/>
</linearGradient>
<linearGradient id="paint3_linear_1_249" x1="25.6635" y1="12" x2="-4.47562" y2="12" gradientUnits="userSpaceOnUse">
<stop stop-color="#E14E83"/>
<stop offset="0.494792" stop-color="#F86F6F" stop-opacity="0.37"/>
</linearGradient>
</defs>
</svg>
